<?xml version="1.0" standalone="no"?>
<!DOCTYPE svg PUBLIC "-//W3C//DTD SVG 20010904//EN"
 "http://www.w3.org/TR/2001/REC-SVG-20010904/DTD/svg10.dtd">
<svg version="1.0" xmlns="http://www.w3.org/2000/svg"
 width="640.000000pt" height="1280.000000pt" viewBox="0 0 640.000000 1280.000000"
 preserveAspectRatio="xMidYMid meet">
<metadata>
Created by potrace 1.15, written by Peter Selinger 2001-2017
</metadata>
<g transform="translate(0.000000,1280.000000) scale(0.100000,-0.100000)"
fill="#000000" stroke="none">
<path d="M3000 12790 c-52 -5 -138 -21 -190 -34 -107 -28 -290 -99 -302 -118
-9 -16 -10 -324 -1 -460 4 -61 10 -98 17 -98 8 0 11 -297 10 -1063 0 -1165 2
-1123 -60 -1237 -70 -129 -161 -210 -464 -412 -270 -181 -370 -257 -472 -361
-139 -140 -230 -302 -286 -505 l-27 -97 0 -3535 c0 -2821 3 -3556 13 -3640 51
-419 156 -662 348 -808 93 -71 369 -208 524 -260 261 -88 514 -133 850 -153
499 -29 979 30 1365 168 202 72 427 191 523 278 176 159 271 411 314 840 10
105 13 806 13 3595 l0 3465 -23 105 c-61 274 -179 472 -394 660 -51 45 -177
140 -280 212 -326 228 -424 319 -488 454 -56 117 -55 84 -55 1229 0 583 2
1188 5 1345 l5 285 -95 38 c-116 47 -252 83 -362 97 -121 15 -379 20 -488 10z
m917 -2232 c-3 -8 -6 -5 -6 6 -1 11 2 17 5 13 3 -3 4 -12 1 -19z m0 -281 c-2
-23 -3 -1 -3 48 0 50 1 68 3 42 2 -26 2 -67 0 -90z"/>
</g>
</svg>
