<svg xmlns="http://www.w3.org/2000/svg" width="257.174" height="361.088" viewBox="0 0 257.174 361.088"><defs><style>.a{fill:#fff;}.b{fill:#7a7473;}.c{fill:#211715;}.d{fill:#bdbdbd;}.e{fill:#5394cf;}.f{fill:#ffda71;}</style></defs><path class="a" d="M185.77,88.218a7.955,7.955,0,0,1,6.361-1.861,7.508,7.508,0,0,1,5.4,3.588,10.609,10.609,0,0,1,1.111,4.269,31.805,31.805,0,0,1-3.242,16.857,20.2,20.2,0,0,1-5.227,6.86c-2.135,1.7-4.282,2.517-7.826.722a47.4,47.4,0,0,1-2.07,7.476c-1.677,4.483-10.458,19.15-21.872,26.137.015,3.605.208,7.356,1.409,10.33,2.58,6.39,16.52,14.43,17.48,14.85,0,0-5.409,34.723-45.7,34.723S89.81,177.446,89.81,177.446c.96-.42,12.71-7.34,15.3-13.73,1.215-3,1.4-6.769,1.406-10.366A44.966,44.966,0,0,1,92.2,141.737a53.851,53.851,0,0,1-10.858-21.891c-3.286,1.313-5.738-.383-7.659-1.915a20.2,20.2,0,0,1-5.227-6.86,31.805,31.805,0,0,1-3.242-16.857,10.609,10.609,0,0,1,1.111-4.269,7.508,7.508,0,0,1,5.4-3.588,7.955,7.955,0,0,1,6.361,1.861S76.548,43.5,132.548,43.5C188.326,43.5,185.77,88.218,185.77,88.218Z"/><path class="b" d="M77.992,87.892c1.723,1.772,2.682-1.859,3.334-3.278,1.037-2.26,2.555-5.556,3.666-7.778.612-1.224,1.495-3.016,2.036-4.265q.859-1.983,1.823-3.91a79.869,79.869,0,0,1,4.293-7.528,10,10,0,0,1,2.748-3.114c3.37-2.212,8-.427,12.106-.736,4.566-.344,8.349-3.292,12.561-4.97,5.854-2.333,14.834-2.948,20.507-.255,2.871.148,5.547.022,8.149,0a51.709,51.709,0,0,1,8.722.389c8.37,1.921,14.179,6.539,18.389,13.537a65.8,65.8,0,0,1,6.63,14.671,51.24,51.24,0,0,1,1.239,5.568c.1.631.171,1.277.23,1.91.04.431.47.584,1.484-.1l-.139.189a7.953,7.953,0,0,1,6.32-1.867c3.973-13.051,2.9-29.6-.963-39.464-2.657-6.788-6.726-14.622-14.97-19.146l-7.568-6.7c-3.4-6.9-10.5-12.808-19.83-16.142-9.781-3.493-38.294-4.086-47.88,4.2l-9.841,6.73c-10.977,5.01-18.721,17-22.019,29.358-3.4,12.733-3.429,31.19,1.356,41.513a7.865,7.865,0,0,1,7.711,1.511"/><path class="c" d="M170.661,19.833c-5.013-10.006-16.012-16.761-26.84-18.606a86.137,86.137,0,0,0-30.771.324c-4.92.973-9.987,2.558-13.868,5.857a2.422,2.422,0,0,0,0,3.4,2.45,2.45,0,0,0,3.394,0c.037-.032.584-.477.185-.168.175-.135.357-.263.539-.389.377-.261.767-.505,1.164-.736.693-.4,1.912-.993,2.313-1.158a37.889,37.889,0,0,1,6.239-1.9A72.132,72.132,0,0,1,127.463,4.9c8.952-.168,17.7.326,25.762,4.561,5.552,2.916,10.451,7.13,13.291,12.8,1.384,2.762,5.526.334,4.145-2.423Z"/><path class="c" d="M180.222,115.846A25.662,25.662,0,0,1,179,122.311c-.238.794-.5,1.581-.766,2.366-.092.271-.183.544-.278.814-.063.181-.36.838-.05.146a49.821,49.821,0,0,1-3.317,6.068,64.357,64.357,0,0,1-13.548,15.765,28.594,28.594,0,0,1-10.072,5.524c-2.965.847-1.7,5.48,1.276,4.628,7.662-2.188,14.042-7.7,19.168-13.613A66.147,66.147,0,0,0,181.9,128.4a34.025,34.025,0,0,0,3.119-12.552c.1-3.09-4.7-3.086-4.8,0Z"/><path class="c" d="M78.039,115.913c2.86,15.318,11.035,30.027,24.738,38.146a33.311,33.311,0,0,0,11.906,4.358,2.477,2.477,0,0,0,2.953-1.676,2.418,2.418,0,0,0-1.677-2.952c-14.621-2.222-25.812-15.469-30.546-28.775a68.323,68.323,0,0,1-2.745-10.377,2.423,2.423,0,0,0-2.953-1.676,2.451,2.451,0,0,0-1.676,2.952Z"/><path class="c" d="M187.467,89.915a5.482,5.482,0,0,1,7.6.637c1.081,1.367,1.183,3.324,1.254,4.992a28.345,28.345,0,0,1-.3,5.777,29.313,29.313,0,0,1-4,10.865c-1.537,2.446-4.083,5.753-7.328,4.86-2.983-.821-4.255,3.809-1.276,4.628,8.347,2.3,13.82-7.566,16-14.107a33.679,33.679,0,0,0,1.69-12.245c-.2-4.015-1.27-7.835-4.926-10.017a10.441,10.441,0,0,0-12.114,1.216,2.421,2.421,0,0,0,0,3.394,2.448,2.448,0,0,0,3.394,0Z"/><path class="c" d="M79.783,86.521A10.449,10.449,0,0,0,68.68,84.8c-3.837,1.7-5.448,5.237-5.842,9.218-.8,8.1,1.63,17.156,6.922,23.417,2.834,3.352,6.921,6.044,11.452,4.99,3.008-.7,1.735-5.328-1.276-4.628-3.153.733-6.22-2.766-7.77-5.089a28.83,28.83,0,0,1-4.258-10.946,28.391,28.391,0,0,1-.393-5.772c.048-1.678.088-3.7,1.069-5.138a5.439,5.439,0,0,1,7.8-.934,2.461,2.461,0,0,0,3.394,0,2.421,2.421,0,0,0,0-3.394Z"/><path class="c" d="M89.827,13.763c-9.655,4.481-16.452,13.586-20.5,23.189-4.165,9.886-5.508,20.955-5.043,31.621a55.487,55.487,0,0,0,3.007,16.938,2.465,2.465,0,0,0,2.952,1.676,2.419,2.419,0,0,0,1.677-2.952C68.5,75.067,68.463,64.576,69.6,54.975,70.737,45.3,73.975,35.7,79.991,27.934A33.459,33.459,0,0,1,92.249,17.908a2.419,2.419,0,0,0,.861-3.284,2.455,2.455,0,0,0-3.283-.861Z"/><path class="c" d="M174.946,29.813c6.632,3.706,10.789,10.064,13.572,16.97,2.972,7.375,3.87,15.5,3.648,23.4a60.6,60.6,0,0,1-2.132,14.65c-.832,2.98,3.8,4.251,4.629,1.276a70.067,70.067,0,0,0,1.63-28.123A51.988,51.988,0,0,0,188.116,35.7a31.956,31.956,0,0,0-10.748-10.026c-2.7-1.509-5.122,2.636-2.422,4.144Z"/><path class="c" d="M140.262,50.818A26.485,26.485,0,0,0,123.135,49a35.238,35.238,0,0,0-8.086,3.3c-2.261,1.163-4.66,2.445-7.251,2.6-2.716.163-5.4-.524-8.118-.383a9.554,9.554,0,0,0-7.332,3.615c-3.718,4.718-5.967,10.4-8.58,15.746-1.2,2.461-2.139,5.041-3.377,7.483-.567,1.116-1.238,2.159-1.732,3.31-.209.485-.415.97-.669,1.434.019-.035-.256.4-.252.4-.335-.65,1.954-.307,1.951-.309C77.423,84.1,74.02,87.487,76.3,89.589c2.073,1.914,4.6,1.179,5.9-1.178.393-.715.643-1.5,1.008-2.224.666-1.326,1.449-2.578,2.062-3.935,2.243-4.964,4.321-10.023,6.929-14.815q1.091-2,2.294-3.94a12.9,12.9,0,0,1,2.347-3.191c1.882-1.592,4.849-.983,7.083-.773a19.188,19.188,0,0,0,8.3-.72,75.552,75.552,0,0,0,7.659-3.591,21.3,21.3,0,0,1,17.958-.26,2.47,2.47,0,0,0,3.284-.861,2.419,2.419,0,0,0-.861-3.283Z"/><path class="c" d="M118.826,39.12a25.621,25.621,0,0,1,18.647,3.033,20.908,20.908,0,0,1,5.888,4.93,36.635,36.635,0,0,1,3.994,6.6c1.4,2.755,5.541.328,4.144-2.423-2.834-5.582-6.372-10.336-11.934-13.439a30.658,30.658,0,0,0-22.015-3.329c-3.011.684-1.736,5.313,1.276,4.628Z"/><path class="c" d="M157.962,53.93a24.046,24.046,0,0,1,14.1,9.905,57.024,57.024,0,0,1,8.766,18.145c.3,1.15.58,2.307.807,3.474.211,1.086.217,2.25.478,3.318.6,2.442,3.245,2.426,5.009,1.329,2.619-1.627.211-5.781-2.422-4.144q-1.158.569,1.044.366l.861.861q.286.948.122-.007-.069-.558-.146-1.116-.135-.947-.317-1.883c-.242-1.245-.54-2.479-.868-3.7a46.889,46.889,0,0,0-2.117-6.033,71.656,71.656,0,0,0-5.953-11.385c-4.332-6.649-10.215-11.889-18.086-13.756-3-.712-4.285,3.915-1.276,4.629Z"/><path class="d" d="M254.77,358.391c-3.259-68.074-11.152-127.691-17.333-148.3-1.778-5.926-4.445-9.481-7.408-11.852s-7.889-3.944-11.314-5.6c-11.13-5.377-25.663-11.363-37.072-16.123l-2.175-.907a60.9,60.9,0,0,0-11.216-9.224c-4.983,21.36-13.835,44.417-20.852,65.2q-7.062,20.915-14.126,41.831c-6.279-15.57-10.432-26.049-15.761-41.831-7.017-20.781-15.869-43.838-20.852-65.2a60.874,60.874,0,0,0-11.154,9.157c-12.67,5.28-28.49,11.83-40.69,17.72-3.85,1.86-8.37,2.73-11.29,5.86a32.629,32.629,0,0,0-6.79,11.08c-8.67,22.64-11.39,30.04-17.14,51.54-2.25,7.76-5.44,20.2-6.63,30.13-1.29,10.78-.91,18.78,3.63,28.38s12.78,14.88,25.39,13.51a31.24,31.24,0,0,0,16.51-7.66,47.759,47.759,0,0,0,7.156-8.1c.1,3.932.037,7.914-.136,12.092-.41,9.63-.86,16.18-1.52,28.4Z"/><path class="a" d="M135.094,175.633a.747.747,0,0,0-.2.207h-4.637a5.99,5.99,0,0,0-2.054-1.162c-10.564-4.25-19.379-10.731-23.24-15.921-3.808,3.5-5.018,6.21-7.5,10.953,5.086,20.413,13.392,42.17,20.047,61.879,5.329,15.782,9.482,26.261,15.761,41.831q7.064-20.916,14.126-41.831c6.688-19.807,15.043-41.681,20.123-62.182-2.371-4.557-3.61-7.224-7.337-10.65-3.86,5.19-12.675,11.671-23.24,15.921A9.193,9.193,0,0,0,135.094,175.633Z"/><path class="c" d="M156.013,153.266c.065,3.745.291,7.774,2.017,11.175,1.642,3.234,4.658,5.8,7.456,8.012a2.476,2.476,0,0,0,3.394,0,2.416,2.416,0,0,0,0-3.394,43.206,43.206,0,0,1-3.978-3.5,13.927,13.927,0,0,1-2.616-3.329c-.075-.14-.145-.283-.216-.425.132.265,0,.026-.046-.111q-.2-.538-.362-1.09a19.523,19.523,0,0,1-.514-2.33,36.8,36.8,0,0,1-.335-5.009,2.4,2.4,0,1,0-4.8,0Z"/><path class="c" d="M99.72,173.593c2.915-2.36,5.957-5.155,7.465-8.665,1.564-3.643,1.721-7.72,1.738-11.632.013-3.089-4.787-3.093-4.8,0a50.249,50.249,0,0,1-.234,5.277,17.25,17.25,0,0,1-.954,4.181c-1.256,3.048-4.117,5.427-6.609,7.445a2.416,2.416,0,0,0,0,3.394,2.455,2.455,0,0,0,3.394,0Z"/><path class="a" d="M150.881,193.5a103.467,103.467,0,0,0,16-25.334c-1.984-3.827-3.319-6.308-6.695-9.412-3.86,5.19-12.675,11.671-23.24,15.921a6,6,0,0,0-2.054,1.162c-.253.471.239.885.471,1.255.363.582,2.148,2.074,5.185,5.408C143.993,186.284,148.029,190.1,150.881,193.5Z"/><path class="a" d="M114.266,193.5a103.5,103.5,0,0,1-16-25.334c1.985-3.827,3.319-6.308,6.695-9.412,3.861,5.19,12.676,11.671,23.24,15.921a5.99,5.99,0,0,1,2.054,1.162c.253.471-.239.885-.47,1.255-.364.582-2.148,2.074-5.185,5.408C121.154,186.284,117.118,190.1,114.266,193.5Z"/><path class="e" d="M135.523,178.835c-2.608.009-4.777.014-7.413.016-.864.856-2.041,2.038-3.51,3.652-.787.863-1.6,1.729-2.433,2.59.582,3.019.99,4.927,1.632,7.674.1.483.224.949.345,1.432a13.261,13.261,0,0,1,.518,3.175c0,.617-3.02,22.656-5.134,40.092,4.424,12.7,8.279,22.4,13.746,35.954l12.957-38.369c-2.658-17.775-5.471-36.348-5.454-37.332a19.339,19.339,0,0,1,1.242-5.625c.744-2.285,1.2-4.283,1.688-6.247-1.074-1.11-2.142-2.229-3.159-3.344-1.482-1.627-2.666-2.815-3.531-3.673Z"/><path class="c" d="M125.4,199.628c4.969,0,9.938-.11,14.908-.112a2.4,2.4,0,0,0,0-4.8c-4.97,0-9.939.11-14.908.112a2.4,2.4,0,1,0,0,4.8Z"/><path class="c" d="M120.087,186.935q.644,3.248,1.4,6.47a14.611,14.611,0,0,1,.758,4.184c-.1,1.483-.37,2.972-.563,4.445-.886,6.783-1.786,13.564-2.659,20.349q-.9,7-1.762,14.008a2.413,2.413,0,0,0,2.4,2.4,2.459,2.459,0,0,0,2.4-2.4c.991-8.115,2.041-16.223,3.1-24.329.625-4.763,1.471-9.554,1.866-14.344a13.876,13.876,0,0,0-.631-4.4c-.629-2.538-1.174-5.1-1.682-7.663a2.424,2.424,0,0,0-2.953-1.676,2.448,2.448,0,0,0-1.676,2.952Z"/><path class="c" d="M136.733,176.436q-4.421.009-8.841.019a2.4,2.4,0,1,0,0,4.8q4.421-.007,8.841-.019a2.4,2.4,0,0,0,0-4.8Z"/><path class="c" d="M148.543,234.4q-1.737-11.624-3.476-23.247-.641-4.322-1.266-8.645-.22-1.54-.433-3.083c-.025-.185.057.441-.007-.052-.018-.149-.038-.3-.057-.446-.033-.261-.072-.523-.094-.785a9.4,9.4,0,0,1,.459-3.278c.583-2.108,1.3-4.167,1.838-6.291.754-3-3.874-4.274-4.629-1.276-.852,3.385-2.635,6.991-2.5,10.536.058,1.481.371,2.979.577,4.444.9,6.405,1.873,12.8,2.83,19.2q1.064,7.1,2.127,14.2a2.417,2.417,0,0,0,2.952,1.677,2.461,2.461,0,0,0,1.676-2.953Z"/><path class="c" d="M129.53,277.02a50.593,50.593,0,0,0-2.782,16.5c.073,3.536.459,7.083.683,10.612.682,10.78,1.125,21.572,1.876,32.349q.774,11.109,1.748,22.2a2.463,2.463,0,0,0,2.4,2.4,2.418,2.418,0,0,0,2.4-2.4c-1.86-21.155-2.784-42.353-4.23-63.534a44.893,44.893,0,0,1,2.534-16.858c.959-2.944-3.674-4.2-4.629-1.276Z"/><path class="c" d="M152.62,269.825c12.585-21.054,25.033-42.213,36.547-63.876.831-1.565,1.542-3.1.944-4.889-.528-1.579-1.908-2.727-3.05-3.871-2.506-2.511-5.122-4.909-7.751-7.29l-.486,3.769,6.027-3.324c1.75-.965,4.407-1.886,4.529-4.237.081-1.571-1.04-3.14-1.863-4.41a44.9,44.9,0,0,0-2.986-4.025,61.075,61.075,0,0,0-15.068-13.353,2.421,2.421,0,0,0-3.526,1.434c-3.4,14.529-8.184,28.7-13.076,42.778q-7.477,21.52-14.76,43.1l-8.572,25.385c-.99,2.933,3.644,4.192,4.629,1.276q7.7-22.8,15.4-45.6c4.73-14,9.848-27.879,14.34-41.965,2.494-7.821,4.8-15.708,6.67-23.7l-3.526,1.435a55.032,55.032,0,0,1,10.09,8.2,56.333,56.333,0,0,1,4.583,5.122c.587.753,1.14,1.536,1.66,2.337.261.4.514.813.754,1.231q.153.266.3.535.107.195.207.4.169.345-.053-.173l.328-1.211q.254-.253-.111,0l-.646.356-.861.475-2.368,1.306-4.52,2.493a2.419,2.419,0,0,0-.486,3.77c2.22,2.01,4.43,4.033,6.573,6.125q.677.661,1.345,1.332a8.873,8.873,0,0,1,1.642,1.687c.092.2.119-.057-.03.292-.321.75-.785,1.478-1.17,2.2q-4.035,7.557-8.216,15.033c-5.742,10.294-11.642,20.5-17.619,30.655q-4.952,8.414-9.965,16.788c-1.589,2.658,2.559,5.075,4.144,2.423Z"/><path class="c" d="M86.944,188.838c-1.234-.686-2.449-1.406-3.668-2.118q-.979-.571-1.961-1.142-.417-.24-.834-.478c-.161-.091-.639-.509-.476-.2l.328,1.211c.016.382-.148.322.084-.09.1-.177.193-.357.293-.533q.353-.624.741-1.226c.511-.8,1.058-1.581,1.637-2.333a62.606,62.606,0,0,1,14.785-13.461l-3.526-1.435c3.405,14.529,8.185,28.7,13.077,42.778,4.723,13.6,9.24,27.283,14.3,40.76,2.8,7.458,5.759,14.852,8.736,22.24a2.476,2.476,0,0,0,2.952,1.677,2.416,2.416,0,0,0,1.676-2.953c-5.282-13.11-10.4-26.268-14.944-39.656-4.75-14-9.846-27.89-14.352-41.974-2.549-7.967-4.9-16-6.812-24.148a2.421,2.421,0,0,0-3.526-1.434,60.9,60.9,0,0,0-15.978,14.5c-1.923,2.476-6.161,7.321-2.311,9.91,2.326,1.565,4.91,2.894,7.361,4.255,2.7,1.5,5.126-2.643,2.422-4.144Z"/><path class="a" d="M150.881,193.5a103.467,103.467,0,0,0,16-25.334c-1.984-3.827-3.319-6.308-6.695-9.412-3.86,5.19-12.675,11.671-23.24,15.921a6,6,0,0,0-2.054,1.162c-.253.471.239.885.471,1.255.363.582,2.148,2.074,5.185,5.408C143.993,186.284,148.029,190.1,150.881,193.5Z"/><path class="a" d="M114.266,193.5a103.5,103.5,0,0,1-16-25.334c1.985-3.827,3.319-6.308,6.695-9.412,3.861,5.19,12.676,11.671,23.24,15.921a5.99,5.99,0,0,1,2.054,1.162c.253.471-.239.885-.47,1.255-.364.582-2.148,2.074-5.185,5.408C121.154,186.284,117.118,190.1,114.266,193.5Z"/><path class="c" d="M152.578,195.2a109.718,109.718,0,0,0,12.858-18.7q1.314-2.456,2.512-4.971a17.533,17.533,0,0,0,1.248-2.718c.327-1.191-.451-2.264-.984-3.268a31.482,31.482,0,0,0-6.329-8.479,2.446,2.446,0,0,0-3.769.486c-4.025,5.337-10.918,9.605-17.06,12.667-2,1-4.088,1.762-6.09,2.731-2.092,1.012-3.315,2.981-1.836,5.135,1.56,2.271,3.865,4.1,5.723,6.121,3.4,3.7,7.087,7.154,10.333,11a2.42,2.42,0,0,0,3.394,0,2.45,2.45,0,0,0,0-3.394c-3.051-3.616-6.506-6.866-9.719-10.333-1.382-1.49-2.766-2.972-4.209-4.4-.389-.386-.773-.778-1.162-1.163-.156-.154-.5-.66-.009.043-.059-.084-.38-.634-.343-.472v1.276l.07-.276-.617,1.059c-.244.286.251-.17.433-.267s.373-.192.562-.277c.808-.365,1.642-.677,2.455-1.031q2.142-.933,4.222-2a69.948,69.948,0,0,0,7.382-4.371,44.029,44.029,0,0,0,10.616-9.621l-3.77.485a31.153,31.153,0,0,1,6.32,8.927v-2.423a109.915,109.915,0,0,1-15.625,24.848,2.466,2.466,0,0,0,0,3.394A2.421,2.421,0,0,0,152.578,195.2Z"/><path class="c" d="M115.963,191.806a109.911,109.911,0,0,1-15.624-24.848v2.423a31.164,31.164,0,0,1,6.319-8.927l-3.769-.485a44.011,44.011,0,0,0,10.616,9.621,70.018,70.018,0,0,0,7.382,4.371q1.977,1.017,4.014,1.911c.813.357,1.639.681,2.452,1.035.263.115.517.227.772.363.163.086.722.606.433.267l-.617-1.059.07.276v-1.276c.037-.162-.284.388-.343.472.5-.7.148-.2-.008-.043-.39.385-.773.777-1.162,1.163-1.444,1.431-2.828,2.913-4.209,4.4-3.214,3.467-6.668,6.717-9.72,10.333a2.465,2.465,0,0,0,0,3.394,2.421,2.421,0,0,0,3.394,0c2.855-3.383,6.066-6.444,9.1-9.665,1.405-1.494,2.778-3.016,4.227-4.468.7-.7,1.459-1.372,2.1-2.136,1.372-1.643,1.985-3.83-.03-5.3-1.651-1.2-3.817-1.782-5.661-2.647a69.695,69.695,0,0,1-10.889-6.325,37.5,37.5,0,0,1-7.769-7.115,2.446,2.446,0,0,0-3.769-.486,31.561,31.561,0,0,0-6.329,8.479c-.486.917-1.172,1.87-1.026,2.949a10.63,10.63,0,0,0,1.2,2.846q1.245,2.608,2.6,5.162a109.718,109.718,0,0,0,12.858,18.7,2.42,2.42,0,0,0,3.394,0A2.451,2.451,0,0,0,115.963,191.806Z"/><path class="c" d="M211.175,358.688c-.016-9.389-.582-18.765-.6-28.153-.02-10.354-.28-20.789,1.363-31.049,1.589-9.924,3.442-19.8,4.983-29.738q2.329-15.006,4.321-30.064,2.1-15.78,3.791-31.609a2.415,2.415,0,0,0-2.4-2.4,2.454,2.454,0,0,0-2.4,2.4c-2.037,19.286-4.589,38.52-7.523,57.69q-2.274,14.856-4.916,29.651c-1.854,10.3-2.059,20.627-2.027,31.065.034,10.741.59,21.468.608,32.207,0,3.088,4.805,3.094,4.8,0Z"/><path class="c" d="M53.257,318.2c.291,13.427-.935,26.9-1.66,40.3-.167,3.087,4.633,3.078,4.8,0,.725-13.4,1.951-26.873,1.66-40.3-.067-3.084-4.867-3.095-4.8,0Z"/><path class="c" d="M51.216,238.762c-1.352-10.239-4.422-20.2-5.531-30.464a2.47,2.47,0,0,0-2.4-2.4,2.415,2.415,0,0,0-2.4,2.4c1.111,10.282,4.179,20.221,5.531,30.464a2.478,2.478,0,0,0,2.4,2.4,2.415,2.415,0,0,0,2.4-2.4Z"/><path class="c" d="M181.005,178.837q21.591,9,42.878,18.656a18.685,18.685,0,0,1,7.438,5.437,25.061,25.061,0,0,1,4,8.492c1.032,3.562,1.854,7.186,2.61,10.815,2.252,10.8,3.9,21.725,5.385,32.651,2,14.722,3.585,29.5,4.94,44.294q2.391,26.111,3.761,52.3.183,3.454.348,6.909c.148,3.076,4.949,3.093,4.8,0q-1.3-26.989-3.635-53.918c-1.353-15.473-2.967-30.927-4.981-46.329-1.524-11.654-3.216-23.305-5.511-34.835-1.9-9.532-3.631-20.9-11.835-27.164-2.976-2.271-6.586-3.476-9.976-4.973-3.587-1.583-7.1-3.338-10.68-4.937-7.628-3.408-15.334-6.634-23.044-9.849q-2.613-1.089-5.227-2.178a2.415,2.415,0,0,0-2.952,1.676,2.462,2.462,0,0,0,1.676,2.953Z"/><path class="c" d="M146.672,286.764c-.679.3,0,.016.172-.037s.377-.1.568-.143c.1-.021.427-.045.044-.018-.441.032.054,0,.12,0a5.607,5.607,0,0,1,.661-.006c.1,0,.195.016.293.022.333.02-.619-.142-.132-.011.188.051.377.087.563.148.089.029.185.079.274.1-.059-.013-.514-.256-.176-.06.207.121.409.286.621.393-.047-.024-.428-.369-.145-.105.068.064.14.123.208.186.131.123.257.252.376.386a2.4,2.4,0,0,0,.167.2c-.384-.342-.255-.351-.148-.181s.22.339.316.519c.037.07.069.142.106.212.178.339-.111-.26-.1-.253a1.486,1.486,0,0,1,.162.484c.04.143.07.287.1.432.045.2.02.484-.026-.261,0,.089.019.178.026.267a5.969,5.969,0,0,1,0,.887c-.018.239-.146.67.028-.139-.034.158-.056.318-.093.475-.056.237-.132.466-.208.7-.158.481.239-.492.084-.186-.058.115-.11.232-.173.344-.045.082-.094.162-.145.241-.041.062-.1.127-.134.192.288-.522.272-.33.117-.167-.107.113-.211.227-.326.333-.057.053-.12.1-.175.155-.173.169.532-.366.114-.09a8.3,8.3,0,0,1-.868.5c-.345.174.584-.217.023-.017-.187.066-.378.124-.57.174-.174.044-.349.077-.525.112-.1.02-.394.058.025,0,.466-.065.008-.009-.093,0a7.88,7.88,0,0,1-1.108-.019c-.386-.028.311.032.3.04a1.456,1.456,0,0,1-.334-.064c-.18-.041-.359-.091-.535-.15-.544-.185.425.235.022.015-.171-.093-.34-.182-.5-.29a2.417,2.417,0,0,0-3.283.861,2.454,2.454,0,0,0,.861,3.283,8.2,8.2,0,0,0,5.986.943,7.925,7.925,0,0,0,5.154-3.388,8.041,8.041,0,0,0,1.173-4.582,7.742,7.742,0,0,0-2.71-5.634,7.616,7.616,0,0,0-4.362-1.786,8.607,8.607,0,0,0-4.207.85,2.4,2.4,0,0,0-1.1,1.434,2.447,2.447,0,0,0,.242,1.849,2.417,2.417,0,0,0,1.434,1.1,2.78,2.78,0,0,0,1.849-.242Z"/><path class="c" d="M34.387,271.984q-3.055,2.985-6.312,5.752-1.582,1.341-3.21,2.628l-.48.377-.239.187-.24.185-.485.37q-.876.663-1.763,1.31a2.458,2.458,0,0,0-.861,3.284,2.426,2.426,0,0,0,3.283.861,126.068,126.068,0,0,0,13.7-11.56,2.4,2.4,0,0,0-3.395-3.394Z"/><path class="a" d="M68.762,249.671c-1.064-3.106-3.783-4.952-6.626-6.593a27.389,27.389,0,0,0-4.477-2.063c.035-1.981,1.191-4.447,2.278-6.429,1.769-3.225,5.613-4.462,8.431-2.864,0,0,7.48,4.188,5.424,11.066C71.635,250.006,68.762,249.671,68.762,249.671Z"/><path class="a" d="M62.731,298.026a25.537,25.537,0,0,1-16.69,3.611,16.259,16.259,0,0,1-9.262-4.354,20.246,20.246,0,0,1-3.6-5.457,51.248,51.248,0,0,1-3.189-36.089c1.94-6.822,6.022-13.821,12.825-15.824,5.862-1.5,13.427-.239,19.323,3.165,2.843,1.641,5.562,3.487,6.626,6.593s-.112,6.479-3.2,7.589a7.338,7.338,0,0,1,5.633,6.819,6.629,6.629,0,0,1-4.566,6.818c2.846.2,4.552,3.662,4.388,6.325s-2.826,5.139-5.574,5.89c2.824,1.146,4.28,5.415,3.325,8.309S65.346,296.449,62.731,298.026Z"/><path class="c" d="M61.519,295.953a24.088,24.088,0,0,1-11.675,3.517c-3.744.083-7.925-.754-10.789-3.333-3.013-2.712-4.659-6.962-5.935-10.721A48.906,48.906,0,0,1,30.6,273c-.524-7.761.5-16.3,4.368-23.169a16.283,16.283,0,0,1,7.061-7.084c3.113-1.443,7.1-1.284,10.4-.67a25.666,25.666,0,0,1,11.717,5.206,6.478,6.478,0,0,1,2.594,4.4,3.2,3.2,0,0,1-1.818,3.267,2.5,2.5,0,0,0-1.762,2.314,2.427,2.427,0,0,0,1.762,2.314c4.288.979,5.445,7.254,1.067,9.009a2.413,2.413,0,0,0,.638,4.714c1.237.14,1.984,2.343,2,3.474.023,2.023-2.075,3.5-3.82,4.026-1.8.542-2.56,3.5-.573,4.387a4.736,4.736,0,0,1,2.405,4.873c-.39,2.665-2.991,4.593-5.116,5.9-2.629,1.613-.22,5.766,2.423,4.145,3.48-2.134,6.909-5.266,7.433-9.538.44-3.586-1.264-7.972-4.722-9.521l-.574,4.387c3.908-1.176,7.553-4.611,7.332-8.962-.2-3.934-2.734-7.509-6.784-7.967l.638,4.715c3.854-1.545,6.7-4.953,6.312-9.3a9.86,9.86,0,0,0-7.379-8.963v4.628a8.307,8.307,0,0,0,4.748-10.894c-1.644-4.324-5.928-7.06-9.976-8.892a30.8,30.8,0,0,0-14.077-2.872,17.756,17.756,0,0,0-12.033,5.1c-6.595,6.546-8.853,16.847-9.146,25.813a54.091,54.091,0,0,0,1.62,14.938c1.217,4.824,3.041,9.984,5.968,14.053,7.028,9.768,21.27,8.819,30.64,3.274C66.6,298.526,64.186,294.375,61.519,295.953Z"/><path class="c" d="M48.128,258.356c5.8.563,11.618.929,17.432,1.3a2.4,2.4,0,1,0,0-4.8c-5.814-.375-11.632-.741-17.432-1.3a2.416,2.416,0,0,0-2.4,2.4,2.452,2.452,0,0,0,2.4,2.4Z"/><path class="c" d="M48.543,271.926c6.028.467,12.075.679,18.084,1.371a2.413,2.413,0,0,0,2.4-2.4,2.457,2.457,0,0,0-2.4-2.4c-6.009-.692-12.056-.9-18.084-1.371a2.421,2.421,0,0,0-2.4,2.4,2.448,2.448,0,0,0,2.4,2.4Z"/><path class="c" d="M49.357,285.329c5.363.028,10.721.284,16.084.183a2.4,2.4,0,0,0,0-4.8c-5.363.1-10.721-.155-16.084-.183a2.4,2.4,0,1,0,0,4.8Z"/><path class="c" d="M69.579,229.649a8.548,8.548,0,0,0-9.588,1.139,11.429,11.429,0,0,0-2.878,4.031,17.107,17.107,0,0,0-1.829,5.755,2.406,2.406,0,0,0,2.4,2.4,2.467,2.467,0,0,0,2.4-2.4c.055-.518-.107.475,0-.006.045-.193.08-.388.128-.581.087-.344.191-.683.307-1.019.07-.2.144-.4.222-.6.049-.128.216-.664.041-.113a7.949,7.949,0,0,1,.47-1.014,19.282,19.282,0,0,1,.988-1.842,2.848,2.848,0,0,0,.256-.376q-.339.427-.1.131l.1-.113a6.855,6.855,0,0,1,.668-.674c.066-.058.435-.418.147-.128s.075-.042.163-.1a8.891,8.891,0,0,1,.793-.441c.4-.2-.518.174-.064.029.13-.042.257-.091.388-.13.254-.076.547-.09.792-.182-.5.186-.4.045-.105.024.133-.009.266-.014.4-.014s.266,0,.4.013c.088.006.176.014.264.025l-.375-.049a7.577,7.577,0,0,0,.776.188c.085.027.169.056.253.088q-.516-.227-.263-.112c.136.078.285.139.424.215a2.4,2.4,0,0,0,2.422-4.145Z"/><path class="a" d="M73.6,218.143a11.5,11.5,0,0,1,3.523-17.305c4.464-2.66,10.186-2.394,15.085-.614,2.436.885,6.205,2.127,9.436,3.24,6.031,2.079,12.331.806,18.834.444,3.538-.2,7.362.128,10.062,2.165s3.513,6.257.829,8.357"/><path class="c" d="M75.3,216.446c-.1-.109-.2-.222-.293-.336.389.457.114.161.036.023-.165-.292-.357-.566-.513-.865-.061-.117-.118-.235-.177-.353-.3-.6.163.458-.087-.189a13.1,13.1,0,0,1-.416-1.266,7.315,7.315,0,0,1-.341-1.973,9.188,9.188,0,0,1,.148-2.458c.966-4.463,5.445-7.441,10.029-7.731a20.349,20.349,0,0,1,8.2,1.353c2.894,1.031,5.81,2,8.718,2.988,6.449,2.195,13.017,1.066,19.642.683,2.861-.166,6.412-.226,8.815,1.623,1.644,1.266,2.18,3.47.616,4.788a2.42,2.42,0,0,0,0,3.394,2.451,2.451,0,0,0,3.394,0,7.173,7.173,0,0,0,1.758-8.184c-1.294-3.227-4.268-5.158-7.57-5.941-7.356-1.743-14.918,1.3-22.307-.141-6.948-1.356-13.19-5.519-20.445-5.395-6.457.11-12.878,3.694-15.1,9.974-1.527,4.307-.649,10,2.5,13.4,2.1,2.271,5.492-1.13,3.394-3.394Z"/><path class="a" d="M73.42,310.838a42.026,42.026,0,0,1-.569-4.8c-.753-9.149-2.618-72.111-2.675-82.117-.13-5.083,2.635-7.609,7.691-8.127,8.6-.881,16.516-1.465,23.371-1.657,6.408-.178,17.715-.483,25.681-.15,3.94.164,7.49,2.2,7.24,7.187.424,8.024,2.692,73.625,2.577,82.879-.041,3.305-.315,6.323-1.446,8.753-.793,1.7-2.691,4.264-7.351,5.313a118.718,118.718,0,0,1-22.837,2.433c-10.12.282-18.413.013-23.47-1.291a11.166,11.166,0,0,1-7.032-5.015A12.136,12.136,0,0,1,73.42,310.838Z"/><path class="f" d="M79.309,238.794c.38,16.549,3.269,68.428,3.31,68.921.339.059,44.3-1.081,44.514-1.119.025-.6-.414-52.485-1.032-69.314C111.765,236.985,79.765,238.757,79.309,238.794Z"/><path class="a" d="M120.5,251.326a6.074,6.074,0,0,0-4.546,1.467,5.842,5.842,0,0,0-1.846,4.967,6.042,6.042,0,0,0,11.312,2.427,6.26,6.26,0,0,0,.211-5.2A6.062,6.062,0,0,0,120.5,251.326Z"/><path class="a" d="M109.947,268.953a4.384,4.384,0,0,0-3.281,1.059,4.216,4.216,0,0,0-1.332,3.584,4.36,4.36,0,0,0,8.164,1.752,4.521,4.521,0,0,0,.152-3.754A4.374,4.374,0,0,0,109.947,268.953Z"/><path class="c" d="M120.5,248.926a8.288,8.288,0,0,0-8.435,5.655,8.736,8.736,0,0,0,2.317,8.859,8.537,8.537,0,0,0,9.435,1.394,8.182,8.182,0,0,0,4.625-8.316,8.354,8.354,0,0,0-2.611-5.339,9.091,9.091,0,0,0-5.331-2.253,2.409,2.409,0,0,0-2.4,2.4,2.465,2.465,0,0,0,2.4,2.4c.558.055-.41-.094-.058-.008.135.032.274.053.409.086.217.054.426.13.639.194.523.158-.336-.182-.033-.017.1.053.2.1.3.151.123.066.244.136.362.21.134.085.591.284.062.014a2.335,2.335,0,0,1,.5.451c.1.1.189.213.289.313.243.24-.3-.481-.006-.01.124.2.255.392.365.6.011.022.238.55.109.21-.12-.316.087.292.106.361.046.159.076.322.118.483.035.134.161.394,0-.049a2.429,2.429,0,0,1,.03.8c0,.009-.025.662,0,.276s-.047.246-.053.269a6.716,6.716,0,0,1-.287.951c.185-.495-.141.223-.222.353a1.442,1.442,0,0,1-.242.359c.038-.031.358-.4.053-.09-.156.162-.318.315-.478.473-.384.379.314-.192.026-.016-.142.086-.277.185-.421.269-.121.07-.247.129-.368.2-.238.132-.167-.052.113-.04a3.371,3.371,0,0,0-.723.235c-.243.064-.518.076-.754.154.455-.15.314-.032.123-.028-.175,0-.349.02-.523.021-.145,0-.292-.015-.436-.014-.335,0,.456.1.135.018-.242-.058-.484-.1-.722-.177a1.758,1.758,0,0,1-.308-.108c.045.127.453.212.056.014a7.871,7.871,0,0,1-.754-.452c-.307-.2.094.087.107.083a1.891,1.891,0,0,1-.238-.211c-.066-.061-.564-.49-.546-.58,0,0,.338.494.084.1-.058-.09-.12-.176-.178-.267s-.435-.618-.385-.708c-.056.1.181.479.025.048-.047-.128-.089-.257-.128-.388-.062-.211-.1-.426-.153-.64-.129-.535.015.427,0,.053,0-.153-.022-.305-.025-.458,0-.123,0-.246.006-.368,0-.092.01-.184.02-.275.018-.183.009-.123-.027.182a2.313,2.313,0,0,1,.22-.892,2.045,2.045,0,0,1,.126-.345c-.289.515,0,.031.071-.088s.154-.262.238-.389c.05-.077.1-.151.157-.224q-.257.33-.087.132c.112-.1.208-.225.318-.329.094-.089.546-.413.115-.117a8.509,8.509,0,0,1,.826-.5c.456-.243-.045,0-.053.015a1.982,1.982,0,0,1,.534-.175c.119-.034.24-.063.362-.089s.243-.048.365-.066l-.27.041c.208-.131.877-.018,1.1,0a2.412,2.412,0,0,0,2.4-2.4A2.459,2.459,0,0,0,120.5,248.926Z"/><path class="c" d="M109.947,266.553a6.652,6.652,0,0,0-6.732,4.572,6.97,6.97,0,0,0,1.844,7.043,6.857,6.857,0,0,0,7.619,1.111,6.546,6.546,0,0,0,3.668-6.579,6.7,6.7,0,0,0-2.08-4.325,7.309,7.309,0,0,0-4.319-1.822,2.4,2.4,0,0,0-1.7.7,2.434,2.434,0,0,0-.7,1.7,2.465,2.465,0,0,0,2.4,2.4q.12.011.24.027l-.638-.086a5.145,5.145,0,0,1,.59.122c.117.032.23.072.345.11.324.106-.229-.07-.238-.106.019.071.446.233.531.286.2.127.333.34-.091-.094.07.072.157.13.231.2s.148.141.218.215.3.371.052.04-.006,0,.032.061c.058.088.112.179.162.272.034.062.149.225.145.288.008-.132-.2-.531-.067-.117a4.805,4.805,0,0,1,.173.769l-.086-.638a5.158,5.158,0,0,1,.008,1.145l.086-.638a5.057,5.057,0,0,1-.141.7c-.038.131-.112.276-.138.408.02-.1.223-.462.065-.181-.1.184-.223.355-.332.535.329-.542.212-.27.06-.11-.07.073-.143.143-.218.211-.18.161-.309.114.158-.11-.087.042-.167.116-.25.167s-.172.1-.261.149-.436.2-.042.033.019-.015-.053.009c-.1.032-.195.06-.293.086a5.412,5.412,0,0,1-.667.128l.638-.085a4.913,4.913,0,0,1-1.124.009l.638.086a4.413,4.413,0,0,1-.7-.157c-.1-.03-.442-.171-.044,0s.06.021-.03-.025a4.9,4.9,0,0,0-.585-.368c.115.037.449.4.176.119-.081-.083-.168-.158-.246-.242s-.121-.153-.191-.216c.419.375.247.334.1.115-.119-.179-.214-.367-.316-.555-.135-.252.211.567.08.2-.039-.112-.079-.222-.112-.336a5.19,5.19,0,0,1-.149-.7l.086.638a4.845,4.845,0,0,1,0-1.179l-.086.638a5.045,5.045,0,0,1,.122-.584c.03-.107.068-.21.1-.315.106-.343-.095.189-.089.207-.034-.094.277-.491.329-.571.18-.279-.117.118-.135.173.027-.084.166-.182.226-.241s.136-.119.2-.181c.2-.192-.493.319-.089.075.179-.108.361-.2.542-.306.25-.141-.47.159-.2.084.108-.03.213-.073.322-.1a4.893,4.893,0,0,1,.657-.13l-.638.086a5.264,5.264,0,0,1,.931-.016,2.412,2.412,0,0,0,2.4-2.4A2.459,2.459,0,0,0,109.947,266.553Z"/><path class="c" d="M75.734,310.2a70.851,70.851,0,0,1-.81-9.869c-.188-3.988-.342-7.978-.491-11.967q-.588-15.826-1.042-31.657c-.27-9.048-.531-18.1-.723-27.145-.028-1.366-.056-2.732-.075-4.1-.023-1.579-.1-3.394.449-4.547a3.85,3.85,0,0,1,2.17-2.056,14.542,14.542,0,0,1,4.136-.821c4.43-.44,8.867-.82,13.31-1.1,7.341-.468,14.71-.614,22.064-.684,3.768-.037,7.539-.036,11.305.1,2.343.082,4.786.49,5.522,2.754a15.247,15.247,0,0,1,.3,3.876q.083,1.9.156,3.795.228,5.754.431,11.509.556,15.453,1.044,30.91c.289,9.155.576,18.311.77,27.469.052,2.449.118,4.9.091,7.351a25.235,25.235,0,0,1-.587,5.931,9.554,9.554,0,0,1-.652,1.892c-.1.208-.218.41-.34.607-.074.12-.484.689-.283.438-1.912,2.4-4.978,2.933-7.866,3.475a136.714,136.714,0,0,1-23.33,1.873c-3.954.054-7.917.027-11.863-.255-2.875-.2-6.051-.39-8.746-1.553a7.891,7.891,0,0,1-4.936-6.221c-.649-3.019-5.277-1.741-4.628,1.276A12.565,12.565,0,0,0,77.1,319.96c2.98,1.766,6.5,2.24,9.889,2.6a148.44,148.44,0,0,0,25.414.051c3.9-.26,7.8-.67,11.658-1.306,3.6-.594,7.3-1.226,10.247-3.541,4.588-3.606,4.865-9.827,4.833-15.22-.045-7.889-.33-15.781-.564-23.666q-.489-16.427-1.068-32.851c-.269-7.753-.527-15.507-.871-23.257a17.913,17.913,0,0,0-.554-5.232,8.991,8.991,0,0,0-7.328-5.76c-3.768-.586-7.762-.356-11.565-.343-3.873.014-7.746.086-11.618.182q-12.411.308-24.754,1.479c-3.627.349-7.448.537-10.254,3.169-2.2,2.067-2.813,5.04-2.784,7.943.075,7.541.317,15.081.528,22.619q.465,16.7,1.037,33.406c.279,8.082.5,16.176,1,24.249a55.378,55.378,0,0,0,.763,6.993,2.422,2.422,0,0,0,2.952,1.676A2.449,2.449,0,0,0,75.734,310.2Z"/><path class="c" d="M83.172,309.979c5.336,1.181,10.976,1.25,16.416,1.256a159.4,159.4,0,0,0,18.854-.994,48.037,48.037,0,0,0,7.739-1.359c2.962-.857,1.7-5.49-1.276-4.628-4.7,1.362-9.259,1.559-14.264,1.857a161.044,161.044,0,0,1-18.552.128c-1.494-.083-2.987-.2-4.474-.365l-.369-.043c-.054-.007-.674-.087-.393-.049.124.017-.549-.083-.7-.106-.573-.093-1.142-.2-1.709-.325-3.01-.666-4.295,3.96-1.276,4.628Z"/><path class="c" d="M124.735,234.735a260.522,260.522,0,0,0-43.962,1.737,2.478,2.478,0,0,0-2.4,2.4,2.414,2.414,0,0,0,2.4,2.4,260.522,260.522,0,0,1,43.962-1.737c3.089.128,3.083-4.673,0-4.8Z"/><path class="c" d="M61.154,303.417c-3.518,7.976-8.326,16.064-15.142,21.661a27.686,27.686,0,0,1-22.684,6.072c-6.389-1.28-11.168-5.329-14.147-11.071-3.929-7.572-4.9-15.819-4.219-24.227a152.527,152.527,0,0,1,4.789-25.565c2-7.754,4.145-15.492,6.437-23.164,2-6.681,4.239-13.279,6.644-19.823,1.475-4.014,2.994-8.012,4.518-12.007,1.592-4.169,3.092-8.289,5.743-11.927a15.29,15.29,0,0,1,4.019-4.09,31.9,31.9,0,0,1,5.457-2.469c4.121-1.607,8.068-3.669,12.1-5.49,8.39-3.79,16.875-7.364,25.371-10.909q3.052-1.275,6.107-2.546a2.479,2.479,0,0,0,1.676-2.952,2.414,2.414,0,0,0-2.952-1.676c-8.963,3.735-17.933,7.458-26.825,11.359-4.36,1.913-8.7,3.867-13,5.914-3.9,1.857-8.351,2.95-11.784,5.646-3.459,2.716-6.043,6.924-7.8,10.9-1.97,4.47-3.576,9.125-5.3,13.7-2.646,7.031-5.2,14.1-7.438,21.269C10.282,249.853,8.141,257.782,6,265.7A183.051,183.051,0,0,0,.513,292.332c-1.068,9.208-.65,18.216,2.992,26.845,2.947,6.982,7.648,12.792,14.882,15.551,7.952,3.033,17.332,1.846,24.749-2.046,8.423-4.419,14.445-12.268,18.985-20.436q1.738-3.127,3.178-6.407a2.476,2.476,0,0,0-.861-3.283,2.418,2.418,0,0,0-3.284.861Z"/><path class="c" d="M122.48,131.227a21.17,21.17,0,0,0,10.2,2.355c3.63-.023,7.325-.726,10.236-2.994a2.414,2.414,0,0,0,0-3.394,2.461,2.461,0,0,0-3.4,0c.711-.554.1-.087-.085.03-.208.133-.422.256-.64.37-.152.08-.9.393-.3.165-.293.111-.584.224-.882.32a15.144,15.144,0,0,1-5.264.7,15.734,15.734,0,0,1-5.021-.676c-.323-.1-.638-.212-.957-.322-.1-.035-.2-.089-.309-.12.591.173.172.077.015,0-.4-.186-.785-.38-1.172-.585a2.453,2.453,0,0,0-3.284.861,2.427,2.427,0,0,0,.861,3.284Z"/><path class="c" d="M131.591,107.029a48.451,48.451,0,0,1,1.142,5.227l-.085-.638a3.17,3.17,0,0,1,.019.722l.086-.638a1.8,1.8,0,0,1-.079.324l.242-.573a1.313,1.313,0,0,1-.115.208l.375-.485a1.046,1.046,0,0,1-.171.168l.486-.375a3.337,3.337,0,0,1-.414.219l.574-.242a2.986,2.986,0,0,1-.7.2l.638-.085a2.814,2.814,0,0,1-.655,0l.638.085c-.247-.034-.489-.094-.736-.127a2.646,2.646,0,0,0-1.85.242,2.4,2.4,0,0,0-.861,3.283,2.3,2.3,0,0,0,1.435,1.1c.537.073,1.058.21,1.6.234a5.086,5.086,0,0,0,2.334-.55,3.31,3.31,0,0,0,1.851-2.188,5.587,5.587,0,0,0-.025-2.387c-.284-1.684-.673-3.353-1.107-5a2.4,2.4,0,0,0-4.628,1.276Z"/><path class="c" d="M103.684,92.3c-.873,2.836-.3,9.361,5.07,9.917,7.1-.043,7.48-7.932,5.089-11.641C111.886,87.541,106.13,86.278,103.684,92.3Z"/><path class="c" d="M160.56,92.3c.873,2.836.305,9.361-5.069,9.917-7.1-.043-7.481-7.932-5.09-11.641C152.358,87.541,158.114,86.278,160.56,92.3Z"/></svg>