<svg width="57.885000000000055px" height="51.094704684317726px" viewBox="85.125 85.95264765784114 57.885000000000055 51.094704684317726" fill="none" xmlns="http://www.w3.org/2000/svg"><g id="5:38822"><path id="Fill 13" fill-rule="evenodd" clip-rule="evenodd" d="M133.391 109.985C133.25 111.698 133.586 112.061 135.27 111.943C136.316 111.872 137.177 111.442 137.674 110.494C139.141 107.69 138.936 106.29 136.182 104.486C135.55 104.072 134.824 103.782 133.858 103.937C133.906 105.959 133.557 107.962 133.391 109.985ZM128.903 129.926C128.143 133.072 125.963 134.406 123.121 135.052C122.235 135.254 121.325 135.408 120.421 135.457C116.709 135.66 113.005 136.215 109.283 135.91C107.123 135.734 104.977 135.361 102.832 135.031C99.6455 134.542 96.4839 133.968 93.3788 133.038C89.9221 132.003 87.8617 129.897 87.2988 126.267C86.92 123.824 86.6954 121.37 86.4532 118.915C86.3131 114.455 86.1422 109.995 86.0427 105.534C85.9202 100.006 86.0294 94.4845 86.7941 88.9945C87.0161 87.4027 87.0213 87.4559 88.5832 87.3291C99.0024 86.4867 109.393 87.487 119.79 87.8319C123.733 87.9623 127.506 89.2375 131.293 90.2839C133.258 90.8257 134.134 92.2232 134.204 94.175C134.261 95.8014 134.406 97.4588 134.021 99.0443C133.741 100.2 134.08 100.508 135.154 100.722C137.65 101.219 139.672 102.457 141.104 104.696C142.025 106.135 142.187 107.606 141.813 109.147C141.552 110.223 141.09 111.275 140.575 112.262C139.366 114.572 137.393 115.513 134.835 115.261C134.205 115.199 133.576 115.123 132.947 115.053C132.629 115.037 132.552 115.218 132.588 115.493C132.455 116.144 131.972 116.728 132.224 117.451C131.108 121.607 129.911 125.743 128.903 129.926Z" fill="#BE4E2B"/><path id="Fill 229" fill-rule="evenodd" clip-rule="evenodd" d="M90 90C92.4553 90.6172 94.6259 91.1573 96.793 91.7091C105.226 93.8557 113.758 94.5438 122.415 93.6579C123.952 93.4999 125.491 93.1559 127.051 93.3456C127.445 93.3937 127.977 93.4437 127.999 94.0037C128.02 94.5247 127.56 94.7217 127.147 94.7961C125.549 95.082 123.953 95.3988 122.343 95.5794C111.848 96.7566 101.643 95.4641 91.7471 91.6828C91.1167 91.4423 90.3952 91.2435 90 90" fill="#0C0C0C"/></g></svg>