<?xml version="1.0" encoding="UTF-8"?>
<svg viewBox="0 0 93.572632 92.479057" xmlns="http://www.w3.org/2000/svg">
 <g transform="translate(-53.191 -150.65)">
  <path d="m81.899 242.7c-0.65822-0.7931-0.08691-2.1227 1.294-3.0115 2.2988-1.4796 2.681-1.838 3.1452-2.949 0.26059-0.62373 0.42892-1.4331 0.374-1.7986-0.09225-0.61407-0.2157-0.57588-1.6257 0.50279l-1.5259 1.1674-1.9957-4.1377c-2.7731-5.7492-5.1277-9.883-8.7297-15.325l-3.0884-4.6665 0.36192-2.4333c0.3979-2.6752 1.2777-5.5249 2.4668-7.9897 0.42484-0.88065 0.65318-1.6012 0.5074-1.6012s-1.7833 0.52509-3.6388 1.1669c-3.7106 1.2834-5.582 2.2552-6.7494 3.5051-0.70719 0.75717-0.73579 0.91886-0.36618 2.0689 0.88166 2.7433 3.5224 8.7175 6.2445 14.127 1.5792 3.1383 2.8726 5.8102 2.8743 5.9376s-0.57814 0.40559-1.2884 0.61838l-1.2915 0.38695 0.0325 1.9901c0.01786 1.0946-0.06896 2.4491-0.19297 3.01-0.21031 0.95114-0.33967 1.0316-1.9202 1.1936-1.4629 0.15-1.8005 0.07091-2.4682-0.57814l-0.77359-0.75195-0.93676 1.0669c-1.8971 2.1607-3.4081 2.2267-7.5425 0.32946-1.4911-0.6842-1.8749-1.0141-1.8749-1.6117 0-1.2496 0.85324-1.6463 3.5404-1.6463 2.4275 0 2.4626-0.01212 3.2092-1.1116 0.41515-0.61138 0.71702-1.1454 0.67082-1.1866s-0.92759 0.07996-1.9587 0.26941-1.9337 0.28323-2.0058 0.2084-0.37513-2.1902-0.67339-4.7009-0.98099-7.7195-1.5171-11.575-0.9902-8.4043-1.0091-10.108c-0.06739-6.0906 1.4467-7.8006 13.683-15.453 1.6588-1.0375 3.0161-2.0785 3.0161-2.3135s-0.51752-1.1963-1.1501-2.1363c-1.1099-1.6493-1.1299-1.7314-0.5718-2.3481 0.87258-0.96422 5.5338-4.0021 11.115-7.2444 4.9645-2.8838 4.9987-2.9116 6.2877-5.1186 0.7128-1.2205 2.1768-3.2399 3.2533-4.4876l1.9573-2.2685-1.2346-0.84359c-3.3511-2.2898-8.387-2.6991-15.967-1.2979-6.2955 1.1637-5.7368 1.2178-6.0771-0.58818-0.16052-0.85185-0.42857-1.5488-0.59565-1.5488s-0.87592 0.29192-1.5752 0.64866c-0.95044 0.48489-1.544 1.1571-2.351 2.6625-0.59374 1.1077-1.2139 2.0263-1.3781 2.0414s-0.4576-0.62189-0.6521-1.4156-0.51287-1.4948-0.7075-1.558c-0.40272-0.13092-1.3983 1.9046-1.7304 3.5379-0.155 0.76229-0.42566 1.1231-0.89348 1.1911-0.53134 0.07725-0.79019-0.21418-1.2427-1.399-0.75943-1.9886-0.4772-2.9292 1.4322-4.7729 1.4648-1.4144 6.9875-4.5227 8.0358-4.5227 0.24938 0 0.8492-0.44418 1.3329-0.98703 0.99398-1.1156 3.0201-1.7972 6.299-2.1192 5.1897-0.50957 18.704 1.6807 23.918 3.8764 1.1012 0.46372 1.2331 0.46781 1.0662 0.03298-0.33676-1.7676 0.21427-0.51614 2.6992 1.1501 0.73861-0.00452 3.573-1.3983 4.9228-2.4207l1.1412-0.86445 0.21205 0.74752c0.11662 0.4111 0.22769 1.7746 0.24681 3.0299l0.03476 2.2824 2.5247 0.74874c1.3886 0.4118 2.8415 0.82986 3.2286 0.92898 0.56228 0.144 1.1854-0.33077 3.0976-2.3599 1.3165-1.3971 2.6505-2.8056 2.9643-3.13s1.008-0.58974 1.5426-0.58974c0.74804 0 1.0162 0.17637 1.1641 0.76551 0.17638 0.70271 0.33802 0.75742 1.9698 0.66691 0.97773-0.05427 1.9058-0.17781 2.0624-0.27458 0.30535-0.18871 0.67904 0.54525 0.67904 1.3336 0 0.26498 0.58926 1.6836 1.3094 3.1525 1.7372 3.543 2.4501 8.3282 1.6366 10.985-0.24877 0.81244-0.25125 0.8114-0.7533-0.32229l-0.5037-1.1375-0.21914 1.3005c-0.12049 0.71527-0.33706 1.6673-0.48124 2.1156l-0.26215 0.81517-0.32815-0.81517-0.32812-0.81513-0.24129 0.92763c-0.17629 0.67777-0.31616 0.80952-0.51922 0.4891-0.19336-0.30508-0.27948-0.17155-0.28296 0.43887-0.01 1.7611-0.8621 1.4255-1.3279-0.52291-0.17676-0.73926-0.24954-0.81691-0.27405-0.29226-0.05884 1.2592-0.64128 1.1392-1.0473-0.21587-0.21648-0.72254-0.51709-1.3137-0.66804-1.3137-1.11 0 1.6483 5.1231 5.6178 10.434 9.6704 12.938 13.389 20.292 12.887 25.487-0.21961 2.2757-1.1064 4.2799-1.7795 4.0216-0.26528-0.10181-0.87145 0.19476-1.3654 0.66796-0.78606 0.75308-0.9676 0.80153-1.5772 0.4208-0.82204-0.51335-0.86832-1.5538-0.19332-4.3492 0.2598-1.076 0.47467-2.2406 0.47746-2.588 0.00447-0.55545-0.11307-0.51839-0.97526 0.30761-1.432 1.372-1.782 0.82894-1.3326-2.0677 0.47781-3.0797 0.47668-3.0882-0.37708-2.881-0.60799 0.14757-0.98499-0.16695-2.2009-1.8363-0.807-1.1079-4.0411-5.2438-7.1869-9.191s-6.6372-8.3871-7.7587-9.8666-2.1425-2.6896-2.269-2.6892c-0.67091 0.00256-8.3057 2.079-11.045 3.0041l-3.1714 1.0708-1.7091 2.9346c-1.581 2.7146-1.7106 3.0964-1.7287 5.0933-0.01073 1.1873 0.27992 3.8835 0.64601 5.9915s0.62124 3.8772 0.5671 3.9313-0.90386-0.17954-1.8883-0.51934c-2.6708-0.92185-2.9324-0.85077-4.3984 1.1956-1.7465 2.438-5.6789 6.1523-8.9122 8.4179l-2.6384 1.8488 2.5151 3.1606c2.8031 3.5225 6.8967 9.486 9.5275 13.88l1.7326 2.8935-0.78619 0.60439c-0.4324 0.33241-0.89626 0.60768-1.0307 0.61164-0.58679 0.01742-0.15743 0.66005 0.86197 1.2901 1.1221 0.6935 2.1541 2.3779 2.1541 3.5158 0 0.70229-2.1158 2.0487-3.2195 2.0487-0.6849 0-1.9808 1.6649-2.4516 3.1497-0.36783 1.16-0.86571 1.3441-4.2847 1.5849-2.8414 0.2001-3.331 0.15865-3.7243-0.3152z"/>
  <path d="m143.37 212.87c-0.20457-0.04367-0.42723 0.10424-0.47185 0.31347l-1.0796 5.0615-0.34432-0.07344c-1.2736-0.27166-2.5532 0.57849-2.831 1.881l-2.7883 13.072c-0.27784 1.3025 0.55293 2.5568 1.8265 2.8284l3.357 0.71606c1.2736 0.27166 2.5438-0.53443 2.8216-1.837l2.7882-13.072c0.27784-1.3025-0.54351-2.6008-1.8171-2.8724l-0.30126-0.06426 1.0796-5.0615c0.04463-0.20922-0.05519-0.42592-0.2598-0.46955l-1.9798-0.42227z" stroke="#000" stroke-width=".1"/>
 </g>
</svg>
