<svg xmlns="http://www.w3.org/2000/svg" width="211.59" height="326.261" viewBox="0 0 211.59 326.261"><defs><style>.a{fill:#fff;}.b{fill:#fcdc4a;}.c{fill:#211715;}</style></defs><path class="a" d="M158.514,81.218a7.253,7.253,0,0,1,5.8-1.7,6.848,6.848,0,0,1,4.923,3.273,9.662,9.662,0,0,1,1.014,3.894,29.01,29.01,0,0,1-2.958,15.378,18.42,18.42,0,0,1-4.768,6.257,12.215,12.215,0,0,1-5.684,2.562l-.974.151c-.466,1.746-.99,3.217-1.247,4-1.705,4.627-11.481,20.983-23.633,26.2-.021,3.276-.092,7.052,1.059,9.886.87,2.15,4.95,5.34,9.24,8.24,0,0-2.359,31.914-32.581,31.914s-30.069-32.124-30.069-32.124c4.58-2.84,8.83-5.93,9.68-8.03,1.121-2.782,1.07-6.446,1.05-9.677a41.59,41.59,0,0,1-15.242-11.915,49.433,49.433,0,0,1-9.451-18.53,11.652,11.652,0,0,1-7.488-2.67,18.42,18.42,0,0,1-4.768-6.257,29.01,29.01,0,0,1-2.958-15.378,9.662,9.662,0,0,1,1.014-3.894A6.848,6.848,0,0,1,55.4,79.52a7.253,7.253,0,0,1,5.8,1.7s2.1-45.8,50.1-45.8C160.632,35.416,158.514,81.218,158.514,81.218Z"></path><path class="a" d="M209.186,323.861c-2.963-58.963-5.731-110.22-11.331-128.889-1.611-5.369-3.64-10.116-6.325-12.263s-7.148-3.574-10.25-5.073c-11.355-5.484-27.221-12.513-33.4-17.636q-.512-.4-1.035-.806s-3.847-2.606-4.49-3.054c-4.475,18.334-12.126,38.93-18.54,56.808-4.853,13.529-8.477,23.276-13.4,37.041-4.493-12.428-9.469-25.5-13.9-37.838C90.115,194.33,83.27,173.92,77.33,156.244l-.081.055-4.593,3.111q-.875.674-1.709,1.358C60.8,165.005,49.3,169.857,40.115,174.293c-3.425,1.654-7.445,2.43-10.039,5.211a28.973,28.973,0,0,0-6.037,9.852c-7.705,20.118-10.121,26.7-15.232,45.81-2,6.888-4.833,17.948-5.889,26.777-1.145,9.583-.811,16.689,3.222,25.223s11.364,13.222,22.566,12a27.739,27.739,0,0,0,14.677-6.805,34.63,34.63,0,0,0,2.962-2.944c-.814,10.123-2.275,24.507-3,34.44Z"></path><path class="a" d="M63.955,224.1c-1-2.91-3.544-4.64-6.208-6.178a25.626,25.626,0,0,0-4.195-1.932c.033-1.856,1.116-4.166,2.135-6.024,1.657-3.022,5.259-4.181,7.9-2.684,0,0,7.008,3.925,5.082,10.369C66.647,224.415,63.955,224.1,63.955,224.1Z"></path><path class="a" d="M58.3,269.408a23.93,23.93,0,0,1-15.637,3.384,15.24,15.24,0,0,1-8.679-4.079,18.99,18.99,0,0,1-3.375-5.114,48.023,48.023,0,0,1-2.988-33.814c1.818-6.392,5.643-12.95,12.017-14.827,5.493-1.409,12.58-.224,18.1,2.965,2.664,1.538,5.211,3.268,6.208,6.178s-.1,6.071-3,7.111a6.874,6.874,0,0,1,5.278,6.389,6.212,6.212,0,0,1-4.278,6.389c2.667.185,4.264,3.43,4.111,5.926s-2.648,4.814-5.222,5.518c2.646,1.074,4.01,5.074,3.115,7.785S60.755,267.931,58.3,269.408Z"></path><path class="a" d="M68.194,191.6a10.774,10.774,0,0,1,3.3-16.214c4.183-2.492,9.543-2.243,14.134-.575,2.282.829,5.814,1.993,8.841,3.036,5.651,1.947,11.554.755,17.647.415,3.315-.185,6.9.121,9.428,2.029s3.291,5.863.777,7.831c0,0-7,4.365-29.89,6.254C72.022,196.057,68.194,191.6,68.194,191.6Z"></path><path class="a" d="M68.023,278.45a39.594,39.594,0,0,1-.533-4.5c-.7-8.572-2.452-67.566-2.506-76.941-.122-4.763,2.469-7.13,7.206-7.615,8.056-.825,15.475-1.373,21.9-1.552,6-.168,16.6-.453,24.062-.142,3.692.154,7.018,2.064,6.784,6.734.4,7.519,2.523,68.985,2.415,77.655a20.334,20.334,0,0,1-1.355,8.2c-.744,1.6-2.522,4-6.888,4.979a111.383,111.383,0,0,1-21.4,2.279c-9.482.264-17.252.012-21.991-1.21a10.459,10.459,0,0,1-6.588-4.7A11.4,11.4,0,0,1,68.023,278.45Z"></path><path class="a" d="M112.135,222.689a5.686,5.686,0,0,0-4.259,1.375,5.47,5.47,0,0,0-1.73,4.653,5.661,5.661,0,0,0,10.6,2.275,5.87,5.87,0,0,0,.2-4.874A5.681,5.681,0,0,0,112.135,222.689Z"></path><path class="a" d="M102.248,239.205a4.106,4.106,0,0,0-3.074.992,3.948,3.948,0,0,0-1.248,3.358,4.085,4.085,0,0,0,7.649,1.642,4.237,4.237,0,0,0,.143-3.517A4.1,4.1,0,0,0,102.248,239.205Z"></path><path class="b" d="M170.253,86.687a9.662,9.662,0,0,0-1.014-3.894,6.848,6.848,0,0,0-4.923-3.273,7.253,7.253,0,0,0-5.8,1.7c-6.993-3.468-11.993-9.579-15.437-14.468-7.084-10.056-9.11-17.061-10.427-24.127-6.223,7.608-20.073,16.139-32.4,20.134a49.123,49.123,0,0,1-4.8,1.267,50.04,50.04,0,0,1-6.455,1.18,117.668,117.668,0,0,1-12.261,8.248c-2.6,1.54-12.387,6.042-15.9,7.475A7.237,7.237,0,0,0,55.4,79.52a6.848,6.848,0,0,0-4.923,3.273,9.662,9.662,0,0,0-1.014,3.894l-3.052-3.518c-1-30.038,6.905-51.821,19.362-63.746C73.279,12.235,90.2,2.441,109.211,2.441c11.6,0,17.739,1.224,24.347,3.77l3.731,1.438,7.005,3.8c4.473,2.428,5.667,4.279,9.777,8.244,9.506,9.17,16.112,25.67,17.164,40.445.3,4.262,1,15.352.33,23.029Z" style="fill: rgb(252, 74, 74);"></path><path class="b" d="M43.253,163.312a19.549,19.549,0,0,0,7.7,5.995c6.587-2.919,13.562-5.852,20-8.539q.834-.685,1.709-1.358l4.593-3.111.081-.055q.508,1.513,1.026,3.055l.282-.155c4.58-2.84,8.83-5.93,9.68-8.03,1.12-2.78,1.07-6.44,1.05-9.67a41.683,41.683,0,0,1-15.242-11.922,49.343,49.343,0,0,1-9.4-18.352l-1.854-.286a12.215,12.215,0,0,1-5.684-2.562,18.42,18.42,0,0,1-4.768-6.257,29.01,29.01,0,0,1-2.958-15.378l-3.053-3.523c.01,21.89-1.66,37.68-4,46.65-.37,1.43-.73,3.09-1.07,4.87l.026-.351a56.606,56.606,0,0,0-2.637,16.053C38.64,155.131,39.459,160.462,43.253,163.312Z" style="fill: rgb(252, 74, 74);"></path><path class="b" d="M141.288,159.354l.221.112q.437-1.674.841-3.326c.643.448,4.49,3.054,4.49,3.054q.523.4,1.035.806c3.246,2.689,9.167,5.9,15.7,9.145l3.857-.841c8.58-1.87,14.56-10.47,14.5-18a53.434,53.434,0,0,0-2.94-17.09c-2.41-7.51-7.09-22.77-7.42-50.05l-1.315,3.523a29.01,29.01,0,0,1-2.958,15.378,18.42,18.42,0,0,1-4.768,6.257,12.215,12.215,0,0,1-5.684,2.562l-.974.152c-.466,1.745-.99,3.216-1.247,4-1.705,4.627-11.481,20.982-23.632,26.194-.022,3.278-.093,7.054,1.058,9.887C132.918,153.264,137,156.454,141.288,159.354Z" style="fill: rgb(252, 74, 74);"></path><path class="b" d="M122.322,188.119s-.223.137-.706.371a5.72,5.72,0,0,1,3.318,5.943c.1,1.859.3,7.017.552,13.856,3.584-9.951,7.42-20.575,10.8-31.079a18.922,18.922,0,0,1-2.327.722,55.87,55.87,0,0,1-11.732,2.975C124.187,182.954,124.591,186.343,122.322,188.119Z" style="fill: rgb(252, 74, 74);"></path><path class="b" d="M117.381,209.451q-.714-.035-1.441-.065a261.93,261.93,0,0,0-42.393,1.819c.4,16.611,2.774,58.8,3.079,63.984,7.5,2.312,32.636,1.5,40.235-.74l1.487-.439C118.332,268.981,117.932,224.322,117.381,209.451ZM105.575,245.2a4.085,4.085,0,0,1-7.649-1.642,3.948,3.948,0,0,1,1.248-3.358,4.18,4.18,0,0,1,6.544,1.483A4.237,4.237,0,0,1,105.575,245.2Zm11.17-14.205a5.661,5.661,0,0,1-10.6-2.275,5.47,5.47,0,0,1,1.73-4.653,5.791,5.791,0,0,1,9.067,2.054A5.87,5.87,0,0,1,116.745,230.992Z" style="fill: rgb(252, 74, 74);"></path><path class="c" d="M44.006,83.161c0,12.666-.35,25.674-2.312,38.086a143.5,143.5,0,0,1-3.362,14.928,59.435,59.435,0,0,0-1.883,11.374,32.284,32.284,0,0,0,.582,9.957,14.629,14.629,0,0,0,5.29,8.137,21.865,21.865,0,0,0,10.487,4.882,2.482,2.482,0,0,0,2.952-1.676,2.418,2.418,0,0,0-1.676-2.953,17.627,17.627,0,0,1-8.369-3.647,10.373,10.373,0,0,1-4.1-6.194,29.354,29.354,0,0,1-.335-8.979,52.759,52.759,0,0,1,2.064-10.991,105.966,105.966,0,0,0,3.018-13.841c.819-5.257,1.349-10.558,1.715-15.866.534-7.726.724-15.474.725-23.217,0-3.089-4.8-3.094-4.8,0Z"></path><path class="c" d="M169.168,83.164a184.115,184.115,0,0,0,4.279,39.148c.825,3.558,1.809,7.074,2.912,10.555a75.107,75.107,0,0,1,2.453,9.246,31.935,31.935,0,0,1,.582,10.215,16.965,16.965,0,0,1-12.6,13.662c-3.009.691-1.736,5.32,1.276,4.628a21.592,21.592,0,0,0,14.69-12.811c2.841-6.772,1.466-14.874-.409-21.737-1.1-4.022-2.489-7.951-3.528-11.992a143.15,143.15,0,0,1-3.037-15.412,198.655,198.655,0,0,1-1.814-25.5c-.04-3.086-4.84-3.095-4.8,0Z"></path><path class="c" d="M160.212,82.915a4.753,4.753,0,0,1,6.778.793A8.148,8.148,0,0,1,167.936,88a25.538,25.538,0,0,1-.3,5.263c-1.074,6.345-4.371,14.076-11.434,15.306a2.421,2.421,0,0,0-1.677,2.952,2.456,2.456,0,0,0,2.953,1.677c9.71-1.692,14.351-12.708,15.156-21.474.39-4.242.281-9.548-3.3-12.474a9.712,9.712,0,0,0-12.518.27,2.421,2.421,0,0,0,0,3.394,2.451,2.451,0,0,0,3.395,0Z"></path><path class="c" d="M154.368,105.486a24.137,24.137,0,0,1-1.127,6.024c-.229.771-.481,1.535-.737,2.3-.078.233-.158.464-.237.7-.161.469-.1.235-.033.1A50.881,50.881,0,0,1,149,120.524a57.483,57.483,0,0,1-12.837,14.8,24.358,24.358,0,0,1-9.466,4.786c-3.009.694-1.735,5.323,1.276,4.628,7.307-1.685,13.426-6.942,18.242-12.459a62.623,62.623,0,0,0,10.014-14.913,32.126,32.126,0,0,0,2.942-11.878c.106-3.089-4.694-3.085-4.8,0Z"></path><path class="c" d="M62.9,79.521a9.712,9.712,0,0,0-12.518-.27c-3.583,2.926-3.692,8.232-3.3,12.474.8,8.766,5.446,19.782,15.156,21.474a2.47,2.47,0,0,0,2.953-1.677,2.421,2.421,0,0,0-1.677-2.952c-7.063-1.23-10.36-8.961-11.434-15.306a25.612,25.612,0,0,1-.3-5.263,8.277,8.277,0,0,1,.946-4.293,4.747,4.747,0,0,1,6.778-.793,2.465,2.465,0,0,0,3.395,0,2.421,2.421,0,0,0,0-3.394Z"></path><path class="c" d="M61.342,107.443c3.071,14.516,11.639,28.664,25.317,35.38a34.3,34.3,0,0,0,11.661,3.341,2.416,2.416,0,0,0,2.4-2.4,2.454,2.454,0,0,0-2.4-2.4c-13.461-1.4-24.471-13.04-29.313-25.052a60.68,60.68,0,0,1-3.037-10.145c-.639-3.02-5.267-1.742-4.628,1.276Z"></path><path class="c" d="M134.2,3.9C125.447.547,115.888-.331,106.573.1A69.9,69.9,0,0,0,75.85,9.229a54.417,54.417,0,0,0-17.619,15.26,69.6,69.6,0,0,0-10.49,22.72c-3.2,11.664-4.114,23.907-3.732,35.96.1,3.081,4.9,3.094,4.8,0-.577-18.2,1.657-37.864,11.7-53.526a47.16,47.16,0,0,1,14.8-14.5,66.151,66.151,0,0,1,27.368-9.919,78.613,78.613,0,0,1,17.938.183A51.125,51.125,0,0,1,132.92,8.525a2.419,2.419,0,0,0,2.953-1.676A2.454,2.454,0,0,0,134.2,3.9Z"></path><path class="c" d="M173.965,83.169a126.342,126.342,0,0,0,.059-16.465,106.533,106.533,0,0,0-1.439-14.626c-2.077-11.125-6.633-22.252-13.939-30.981-1.921-2.3-4.129-4.346-6.245-6.459a30.6,30.6,0,0,0-6.9-5.259c-2.708-1.491-5.132,2.653-2.422,4.144a24.539,24.539,0,0,1,5.455,4.044c1.866,1.829,3.779,3.648,5.539,5.579a52.277,52.277,0,0,1,8.458,13.134,70.868,70.868,0,0,1,5.109,15.5,88.423,88.423,0,0,1,1.521,13.732,130.736,130.736,0,0,1,0,17.659,2.419,2.419,0,0,0,2.4,2.4,2.45,2.45,0,0,0,2.4-2.4Z"></path><path class="c" d="M128.588,141.234a50.57,50.57,0,0,0,.21,6.337,12.522,12.522,0,0,0,1.69,5.667c2.372,3.425,6.2,5.888,9.589,8.188a2.4,2.4,0,1,0,2.422-4.144c-1.614-1.095-3.218-2.214-4.728-3.45-.661-.541-1.308-1.1-1.921-1.7-.268-.26-.53-.526-.781-.8-.127-.14-.25-.283-.371-.428-.245-.294.265.432-.065-.091-.145-.23-.291-.45-.414-.693-.131-.26.131.388,0-.038-.072-.226-.153-.448-.218-.676a13.981,13.981,0,0,1-.45-2.294,53.905,53.905,0,0,1-.158-5.88c.02-3.089-4.78-3.093-4.8,0Z"></path><path class="c" d="M86.968,141.444A51.44,51.44,0,0,1,86.8,147.2a14.215,14.215,0,0,1-.483,2.362c-.066.222-.142.439-.218.658.053-.152.135-.232.016-.045-.085.133-.548.819-.212.393-2.189,2.771-5.511,4.655-8.48,6.5a2.4,2.4,0,1,0,2.422,4.144c1.939-1.206,3.853-2.459,5.668-3.846a20.659,20.659,0,0,0,4.278-4.045,11.2,11.2,0,0,0,1.7-5.211,48.078,48.078,0,0,0,.277-6.67c-.019-3.088-4.819-3.094-4.8,0Z"></path><path class="c" d="M102.245,47.868A65.221,65.221,0,0,1,86.467,64.133,99.388,99.388,0,0,1,69.3,74.5q-2.476,1.17-4.973,2.3-1.095.493-2.194.978-.486.215-.971.424l-.338.145c-.7.3.4-.165-.24.1A2.48,2.48,0,0,0,58.911,81.4a2.414,2.414,0,0,0,2.952,1.676,147.047,147.047,0,0,0,15.811-7.4A97.7,97.7,0,0,0,97.713,60.808a62.449,62.449,0,0,0,8.677-10.517c1.691-2.6-2.463-5-4.145-2.423Z"></path><path class="c" d="M99.608,60.443c-1.851.583-3.728,1.026-5.62,1.452-.847.191-1.694.381-2.547.541q-.65.122-1.3.22c-.125.019-.917.152-.26.04-.264.045-.535.067-.8.1a2.46,2.46,0,0,0-2.4,2.4c.053,1.176,1.064,2.556,2.4,2.4a64.372,64.372,0,0,0,11.807-2.522,2.4,2.4,0,0,0-1.276-4.629Z"></path><path class="c" d="M130.787,41.127a55.03,55.03,0,0,1-13.413,10.94,83.418,83.418,0,0,1-17.766,8.376c-2.923.957-1.672,5.593,1.276,4.629A88.846,88.846,0,0,0,119.8,56.211c5.222-3.222,10.407-6.972,14.384-11.69a2.464,2.464,0,0,0,0-3.394,2.419,2.419,0,0,0-3.394,0Z"></path><path class="c" d="M159.726,79.145c-7.2-3.637-12.4-10.057-16.68-16.73a55.617,55.617,0,0,1-7.877-19.34,2.424,2.424,0,0,0-2.952-1.677,2.449,2.449,0,0,0-1.677,2.953,57.245,57.245,0,0,0,5.509,15.626,69.13,69.13,0,0,0,11.719,16.237A37.293,37.293,0,0,0,157.3,83.29c2.751,1.39,5.183-2.75,2.423-4.145Z"></path><path class="c" d="M133.328,175.616a55.242,55.242,0,0,1-11.73,2.98,2.409,2.409,0,0,0-1.677,2.953,2.473,2.473,0,0,0,2.953,1.676,55.3,55.3,0,0,0,11.73-2.98,2.459,2.459,0,0,0,1.676-2.952,2.427,2.427,0,0,0-2.952-1.677Z"></path><path class="c" d="M110.426,286.4c0,1.9-.3,3.855-.488,5.744-.245,2.521-.509,5.04-.778,7.559q-.907,8.48-1.874,16.954-.4,3.6-.8,7.2a2.415,2.415,0,0,0,2.4,2.4,2.456,2.456,0,0,0,2.4-2.4c1.115-10.269,2.344-20.526,3.363-30.805.217-2.189.577-4.453.577-6.655,0-3.089-4.8-3.094-4.8,0Z"></path><path class="c" d="M149.081,163.859a135.092,135.092,0,0,0,16.305,8.845c6.06,2.941,12.119,5.985,18.329,8.6,2.558,1.076,5.559,2.14,7.374,4.347a24.48,24.48,0,0,1,3.775,7.825,79.609,79.609,0,0,1,2.671,10.729c1.738,9.34,2.673,18.539,3.558,28.12,1.2,12.964,2.07,25.958,2.86,38.952,1.065,17.523,1.952,35.055,2.833,52.588.155,3.074,4.955,3.092,4.8,0-.8-15.921-1.607-31.842-2.544-47.756-.8-13.552-1.673-27.1-2.864-40.625-.894-10.149-1.905-20.323-3.625-30.37a95.754,95.754,0,0,0-2.2-10.135c-1.69-5.915-3.94-12.444-9.582-15.643-2.805-1.59-5.891-2.616-8.792-4.013-3.079-1.483-6.174-2.935-9.261-4.4-6.026-2.865-12.088-5.727-17.851-9.1-1.142-.668-2.268-1.364-3.368-2.1-2.575-1.722-4.98,2.434-2.422,4.145Z"></path><path class="c" d="M127.8,208.919c6.142-17.05,12.414-34.137,16.77-51.75.742-3-3.886-4.278-4.629-1.276-4.356,17.613-10.627,34.7-16.77,51.75a2.424,2.424,0,0,0,1.677,2.952,2.449,2.449,0,0,0,2.952-1.676Z"></path><path class="c" d="M141.034,158.153l2.9,1.962a38.222,38.222,0,0,1,3.425,2.529,52.632,52.632,0,0,1,5.85,5.469,28.283,28.283,0,0,1,2.309,2.9q.5.728.953,1.483c.169.282.334.565.492.852.059.105.388.834.386.621l.327-1.212-.167.261.861-.861a42.652,42.652,0,0,1-4.2,2.282c-1.523.883-3.021,1.809-4.536,2.707a2.422,2.422,0,0,0-.485,3.77c1.807,1.627,3.609,3.261,5.365,4.944q1.272,1.22,2.506,2.476c.108.11.344.453.487.5.334.114.092.187.147-.192.048-.33-.109.129-.151.181a8.386,8.386,0,0,0-.588,1.041q-3.6,6.346-7.344,12.612-7.5,12.559-15.567,24.77-4.635,7.02-9.451,13.917a2.422,2.422,0,0,0,.861,3.284,2.449,2.449,0,0,0,3.284-.861q8.932-12.8,17.252-26.02,4.146-6.594,8.133-13.284c2.615-4.387,5.455-8.768,7.734-13.34a4.39,4.39,0,0,0,.1-4.167,14.382,14.382,0,0,0-2.828-3.165c-2.124-2.092-4.332-4.1-6.548-6.092l-.486,3.769c1.98-1.174,3.932-2.4,5.952-3.506,1.967-1.077,4.762-1.973,4.046-4.848a16.305,16.305,0,0,0-2.847-4.986,39.738,39.738,0,0,0-3.7-4.4,75.4,75.4,0,0,0-12.05-9.546c-2.564-1.737-4.969,2.42-2.423,4.145Z"></path><path class="c" d="M178.822,323.861c-.738-10.02-1.763-20.016-2.631-30.025-.588-6.785-1.271-13.493-.526-20.285,1.844-16.834,5.685-33.842,8.518-50.714,1.7-10.118,3.518-20.334,4.353-30.569a2.421,2.421,0,0,0-2.4-2.4,2.449,2.449,0,0,0-2.4,2.4c-.709,8.693-2.21,17.28-3.624,25.929-1.464,8.955-3.217,17.851-4.826,26.778-1.553,8.615-3.018,17.259-4.11,25.946a65.363,65.363,0,0,0-.73,8.965c.045,3.506.368,7.016.654,10.509.916,11.16,2.1,22.3,2.922,33.466a2.459,2.459,0,0,0,2.4,2.4,2.42,2.42,0,0,0,2.4-2.4Z"></path><path class="c" d="M43.919,289.728c-.924,11.384-2.137,22.743-2.977,34.133a2.4,2.4,0,1,0,4.8,0c.84-11.39,2.053-22.749,2.977-34.133a2.42,2.42,0,0,0-2.4-2.4,2.448,2.448,0,0,0-2.4,2.4Z"></path><path class="c" d="M31.566,191.571c.686,8.386,2.124,16.72,3.295,25.048a2.415,2.415,0,0,0,2.953,1.676,2.464,2.464,0,0,0,1.676-2.952c-1.112-7.9-2.473-15.812-3.124-23.772a2.462,2.462,0,0,0-2.4-2.4,2.418,2.418,0,0,0-2.4,2.4Z"></path><path class="c" d="M85.66,173.483q-2.979-8.834-5.95-17.67a2.456,2.456,0,0,0-2.952-1.677,2.425,2.425,0,0,0-1.677,2.953q2.976,8.835,5.95,17.67a2.456,2.456,0,0,0,2.953,1.676,2.423,2.423,0,0,0,1.676-2.952Z"></path><path class="c" d="M61.854,173.037q-.546-.317.139.253l.328,1.212q-.324.777-.033.167c.089-.176.18-.352.273-.526q.209-.391.427-.777.51-.9,1.077-1.76a29.386,29.386,0,0,1,2.1-2.836,47.618,47.618,0,0,1,5.788-5.731q.8-.676,1.624-1.327c.148-.117.813-.586.3-.234.05-.034.1-.07.151-.1.5-.311.974-.66,1.459-.989l2.976-2.016a2.458,2.458,0,0,0,.861-3.283,2.422,2.422,0,0,0-3.284-.861,79.55,79.55,0,0,0-8.907,6.665,44.84,44.84,0,0,0-6.374,7.077,32.783,32.783,0,0,0-2.34,3.751,5.346,5.346,0,0,0-.895,2.782,3.2,3.2,0,0,0,1.91,2.679,2.46,2.46,0,0,0,3.284-.861,2.423,2.423,0,0,0-.861-3.283Z"></path><path class="c" d="M54.4,272.065c-3.032,6.868-7.121,13.793-12.871,18.739a24.642,24.642,0,0,1-19.625,5.928C8.6,294.678,4.26,279.517,4.807,267.8a117.467,117.467,0,0,1,3.739-22.378c1.685-6.867,3.614-13.694,5.581-20.485q2.492-8.607,5.508-17.043c1.136-3.173,2.315-6.33,3.506-9.483,1.364-3.608,2.558-7.37,4.265-10.833,1.454-2.951,3.472-6.257,6.387-7.948a32.026,32.026,0,0,1,4.494-1.973c1.8-.7,3.536-1.538,5.285-2.364,7.384-3.487,14.895-6.7,22.42-9.872q2.794-1.176,5.591-2.343a2.481,2.481,0,0,0,1.676-2.953,2.414,2.414,0,0,0-2.952-1.676c-8.116,3.391-16.23,6.794-24.241,10.427-3.555,1.612-7.039,3.351-10.672,4.779a22.956,22.956,0,0,0-5.121,2.539,19.867,19.867,0,0,0-4.114,4.275c-2.517,3.316-4,7.091-5.471,10.948-1.413,3.7-2.822,7.4-4.194,11.113-2.189,5.93-4.242,11.906-6.061,17.96-2.081,6.928-4.02,13.918-5.827,20.922A143.941,143.941,0,0,0,.175,265.269c-1.118,13.353,2.956,30.69,17.305,35.337,7.224,2.34,15.41,1.108,21.962-2.544,7.2-4.01,12.38-10.844,16.311-17.934q1.527-2.754,2.8-5.64a2.477,2.477,0,0,0-.861-3.284,2.418,2.418,0,0,0-3.284.861Z"></path><path class="c" d="M24.869,249.324q-1.846,1.564-3.76,3.047L21.6,252q-1.169.9-2.361,1.772a2.607,2.607,0,0,0-1.1,1.435,2.457,2.457,0,0,0,.242,1.849,2.422,2.422,0,0,0,1.435,1.1,2.347,2.347,0,0,0,1.849-.242q3.395-2.477,6.606-5.2a2.418,2.418,0,0,0,.7-1.7,2.443,2.443,0,0,0-.7-1.7,2.414,2.414,0,0,0-1.7-.7,2.691,2.691,0,0,0-1.7.7Z"></path><path class="c" d="M57.093,267.336c-5.964,3.524-15.323,5.269-20.969.1-2.694-2.467-4.184-6.3-5.35-9.683A45.58,45.58,0,0,1,28.363,246.1c-.509-7.225.417-15.159,3.96-21.588a15.325,15.325,0,0,1,6.534-6.706c2.858-1.369,6.546-1.254,9.589-.705a24.4,24.4,0,0,1,10.912,4.732,6.179,6.179,0,0,1,2.541,3.958,2.91,2.91,0,0,1-1.582,3.107,2.5,2.5,0,0,0-1.762,2.314,2.429,2.429,0,0,0,1.762,2.314c3.849.887,4.976,6.548,1,8.149a2.413,2.413,0,0,0,.638,4.715c.963.11,1.724,2.089,1.718,3.086-.009,1.838-1.862,3.159-3.467,3.644-1.8.545-2.558,3.492-.573,4.387a4.3,4.3,0,0,1,2.168,4.512c-.389,2.353-2.784,4.135-4.708,5.317-2.628,1.614-.22,5.767,2.422,4.144,3.373-2.071,6.666-5.126,7.069-9.292.325-3.351-1.324-7.381-4.529-8.826l-.573,4.386c3.737-1.129,7.2-4.411,6.979-8.57-.2-3.77-2.637-7.145-6.506-7.588l.638,4.714c3.7-1.489,6.376-4.7,6.024-8.874a9.378,9.378,0,0,0-7.024-8.532v4.628a7.94,7.94,0,0,0,4.544-10.421c-1.565-4.062-5.548-6.645-9.365-8.376a29.008,29.008,0,0,0-13.438-2.724,16.748,16.748,0,0,0-11.231,4.8c-6.224,6.157-8.357,15.858-8.633,24.306a50.826,50.826,0,0,0,1.557,14.178,39.681,39.681,0,0,0,5.455,12.9c6.61,9.368,20.088,8.576,29.033,3.289C62.173,269.91,59.761,265.759,57.093,267.336Z"></path><path class="c" d="M44.622,232.39c5.434.527,10.885.87,16.333,1.222a2.4,2.4,0,1,0,0-4.8c-5.448-.352-10.9-.7-16.333-1.222a2.417,2.417,0,0,0-2.4,2.4,2.452,2.452,0,0,0,2.4,2.4Z"></path><path class="c" d="M45.011,245.105c5.648.437,11.313.636,16.944,1.285a2.415,2.415,0,0,0,2.4-2.4,2.457,2.457,0,0,0-2.4-2.4c-5.631-.649-11.3-.848-16.944-1.285a2.421,2.421,0,0,0-2.4,2.4,2.448,2.448,0,0,0,2.4,2.4Z"></path><path class="c" d="M45.773,257.663c5.025.026,10.045.266,15.071.171a2.4,2.4,0,0,0,0-4.8c-5.026.095-10.046-.145-15.071-.171a2.4,2.4,0,0,0,0,4.8Z"></path><path class="c" d="M64.8,205.211a8.167,8.167,0,0,0-9.168,1.09,10.8,10.8,0,0,0-2.72,3.808,16.208,16.208,0,0,0-1.734,5.469,2.406,2.406,0,0,0,2.4,2.4,2.468,2.468,0,0,0,2.4-2.4c.053-.5-.109.5,0,.034.042-.181.075-.364.12-.544.081-.323.179-.64.287-.955.066-.189.135-.376.208-.563.057-.145.179-.647.024-.069a5.831,5.831,0,0,1,.44-.95,18.213,18.213,0,0,1,.925-1.726c.057-.089.22-.246.24-.353q-.352.447-.117.154l.09-.106a6.541,6.541,0,0,1,.626-.631c.065-.057.442-.391.122-.109s.056-.028.138-.08a8.422,8.422,0,0,1,.743-.414c.385-.2-.535.184-.1.043.122-.04.242-.086.365-.122.242-.073.5-.095.741-.17-.577.182-.4.046-.139.028.125-.009.25-.014.375-.014s.25,0,.374.013c.447.03.051.049-.143-.028.221.088.5.1.726.175.08.026.159.054.237.083q-.537-.236-.282-.12c.128.073.267.13.4.2a2.4,2.4,0,0,0,2.423-4.145Z"></path><path class="c" d="M69.7,189.669a9.118,9.118,0,0,1-.477-.794c-.063-.118-.121-.239-.181-.358-.3-.607.158.454-.093-.2a12.2,12.2,0,0,1-.617-2.241c-.086-.488-.032-.208-.019-.1-.024-.21-.04-.421-.051-.632a11.042,11.042,0,0,1-.005-1.165,8,8,0,0,1,.48-2.291c1.5-4.158,6.425-6.111,10.689-5.935a25.141,25.141,0,0,1,7.215,1.758c2.6.9,5.207,1.86,7.843,2.657,5.914,1.787,12.015.531,18.033.275,2.469-.1,5.491-.062,7.55,1.527,1.482,1.143,1.948,3.08.564,4.257a2.42,2.42,0,0,0,0,3.394,2.45,2.45,0,0,0,3.394,0,6.854,6.854,0,0,0,1.761-7.631,9.666,9.666,0,0,0-6.68-5.7c-6.581-1.911-13.542.661-20.238-.095-3.239-.366-6.381-1.748-9.449-2.794a39.374,39.374,0,0,0-8.973-2.376c-5.911-.569-12.354,1.885-15.375,7.232a13.449,13.449,0,0,0,.484,13.641c1.7,2.559,5.864.158,4.145-2.423Z"></path><path class="c" d="M112.135,220.289a7.919,7.919,0,0,0-8.05,5.41,8.338,8.338,0,0,0,2.21,8.447,8.159,8.159,0,0,0,9.025,1.33,7.813,7.813,0,0,0,4.408-7.923,7.977,7.977,0,0,0-2.491-5.108,8.688,8.688,0,0,0-5.1-2.156,2.408,2.408,0,0,0-2.4,2.4,2.465,2.465,0,0,0,2.4,2.4c.533.053-.438-.095-.095-.013.127.03.257.049.384.081.2.05.4.121.6.182.5.151-.364-.192-.068-.032.092.05.188.092.28.141.115.063.228.128.339.2l.132.085q.314.224-.105-.1c.13,0,.377.327.472.422s.177.2.271.294c.235.236-.309-.491-.03-.04.116.187.239.367.342.562.019.037.221.531.094.179s.073.25.093.32c.042.149.07.3.109.452.05.19.166.287,0-.085a1.97,1.97,0,0,1,.028.744c0,.026-.01.638,0,.238.01-.383-.036.187-.046.233a2.259,2.259,0,0,1-.27.89c.221-.227.126-.254.012-.064-.071.118-.131.242-.2.359-.044.071-.152.311-.227.336,0,0,.392-.442.074-.114-.147.151-.3.3-.449.442-.367.364.336-.211.055-.038-.133.082-.259.173-.394.252-.113.066-.231.121-.345.185-.184.1-.286.019.142-.053-.224.038-.457.162-.678.22s-.474.086-.706.145c.546-.138.325-.036.155-.032s-.326.018-.49.019c-.136,0-.273-.013-.408-.013-.327,0,.481.1.167.023-.228-.054-.454-.1-.677-.166.02.006-.284-.106-.288-.1.055-.055.516.242.088.028a7.209,7.209,0,0,1-.706-.424c-.3-.192.15.018.131.1,0-.008-.195-.171-.224-.2s-.487-.549-.511-.543c.031-.007.338.492.1.128-.055-.085-.113-.165-.167-.25a5.331,5.331,0,0,0-.361-.663c.077,0,.2.531.039.081-.044-.12-.084-.241-.12-.364-.058-.2-.1-.4-.144-.6-.123-.512.022.454.01.09,0-.143-.022-.285-.024-.429,0-.115,0-.23.006-.345q0-.129.018-.258c.018-.185.008-.114-.031.211-.075-.156.15-.663.207-.835a1.518,1.518,0,0,1,.118-.323c-.342.478-.03.1.051-.047.07-.125.144-.246.223-.365.047-.071.1-.141.148-.21-.186.236-.221.288-.106.154.105-.095.194-.21.3-.308l.127-.115q.309-.258-.05.03a2.43,2.43,0,0,1,.774-.464c.442-.237-.072.054-.086.029,0,0,.479-.158.5-.164.112-.031.226-.059.34-.083s.227-.045.342-.062l-.294.044c.108-.12.9-.012,1.036,0a2.412,2.412,0,0,0,2.4-2.4A2.459,2.459,0,0,0,112.135,220.289Z"></path><path class="c" d="M102.248,236.805A6.31,6.31,0,0,0,95.8,241.2a6.681,6.681,0,0,0,1.766,6.747,6.208,6.208,0,0,0,3.2,1.637,7.133,7.133,0,0,0,4.121-.573,6.277,6.277,0,0,0,3.512-6.294,6.437,6.437,0,0,0-1.993-4.16,7.022,7.022,0,0,0-4.154-1.751,2.4,2.4,0,0,0-1.7.7,2.4,2.4,0,0,0,0,3.394,2.728,2.728,0,0,0,1.7.7c.075.007.15.015.225.025l-.638-.085a4.717,4.717,0,0,1,1.086.3l-.573-.242a4.508,4.508,0,0,1,.6.313c.064.041.127.083.189.127l-.3-.239a1.249,1.249,0,0,1,.3.265c.083.081.157.168.237.252.167.176-.373-.532-.093-.115a4.228,4.228,0,0,1,.368.686l-.242-.573a4.571,4.571,0,0,1,.278,1.036l-.086-.638a4.812,4.812,0,0,1,.007,1.073l.086-.638a4.7,4.7,0,0,1-.312,1.165l.242-.574a4.835,4.835,0,0,1-.359.65c-.21.325.321-.367.128-.166-.079.082-.153.169-.236.248-.067.064-.149.119-.211.188.387-.423.34-.252.12-.111a4.5,4.5,0,0,1-.6.315l.573-.242a4.994,4.994,0,0,1-1.219.321l.638-.085a4.636,4.636,0,0,1-1.053.009l.638.085a4.268,4.268,0,0,1-.967-.26l.573.242a4.124,4.124,0,0,1-.668-.358c-.217-.145-.251-.313.141.117-.084-.092-.19-.167-.278-.256-.042-.043-.259-.223-.253-.28-.007.07.392.55.117.139a4.616,4.616,0,0,1-.364-.67l.242.574a4.781,4.781,0,0,1-.328-1.173l.086.638a4.531,4.531,0,0,1,0-1.1l-.086.638a4.556,4.556,0,0,1,.3-1.073l-.242.573a4.189,4.189,0,0,1,.291-.545c.033-.052.068-.1.1-.152q.162-.225-.185.242a1.675,1.675,0,0,0,.211-.225c.051-.05.178-.2.239-.214-.112.023-.463.329-.111.1a4.385,4.385,0,0,1,.629-.331l-.574.242a4.576,4.576,0,0,1,1.1-.287l-.638.086a4.885,4.885,0,0,1,.872-.015,2.412,2.412,0,0,0,2.4-2.4A2.459,2.459,0,0,0,102.248,236.805Z"></path><path class="c" d="M70.337,277.812a65.558,65.558,0,0,1-.748-9.1c-.176-3.72-.32-7.441-.459-11.162q-.55-14.74-.973-29.486c-.255-8.546-.5-17.093-.684-25.641q-.04-1.9-.071-3.794a11.364,11.364,0,0,1,.356-4.27,3.576,3.576,0,0,1,1.8-1.847,11.729,11.729,0,0,1,3.857-.841c4.1-.41,8.215-.764,12.332-1.031,6.866-.445,13.757-.585,20.636-.657,3.5-.037,7.01-.04,10.512.072a10.1,10.1,0,0,1,3.493.5,3.163,3.163,0,0,1,1.939,1.956,13.354,13.354,0,0,1,.283,3.605q.079,1.791.148,3.582.212,5.335.4,10.671.522,14.466.978,28.934c.271,8.591.54,17.183.723,25.777.049,2.313.112,4.63.088,6.944-.029,2.682-.178,6.175-1.691,8.226s-4.529,2.7-7.174,3.2a126.524,126.524,0,0,1-21.733,1.772c-3.762.055-7.533.035-11.288-.231a26.244,26.244,0,0,1-8.045-1.386,7.247,7.247,0,0,1-4.682-5.791c-.653-3.018-5.281-1.741-4.628,1.276a11.926,11.926,0,0,0,5.582,7.978c2.8,1.705,6.14,2.162,9.341,2.508a138.409,138.409,0,0,0,23.95.057c3.664-.246,7.322-.632,10.945-1.23,3.258-.538,6.673-1.094,9.37-3.136,4.541-3.439,4.884-9.312,4.854-14.589-.043-7.375-.309-14.751-.528-22.122q-.458-15.425-1-30.846c-.253-7.269-.494-14.54-.817-21.807a16.162,16.162,0,0,0-.6-5.106,8.635,8.635,0,0,0-7.1-5.334,74,74,0,0,0-10.862-.3c-3.648.015-7.3.084-10.941.176q-11.664.291-23.263,1.41c-3.369.326-6.913.559-9.478,3.06-2.048,2-2.6,4.78-2.572,7.534.068,7.043.3,14.087.494,21.127q.437,15.684.974,31.365c.261,7.569.469,15.15.938,22.71a52.2,52.2,0,0,0,.717,6.543,2.422,2.422,0,0,0,2.952,1.676A2.45,2.45,0,0,0,70.337,277.812Z"></path><path class="c" d="M77.121,277.791c5.052,1.117,10.391,1.181,15.541,1.182a149.561,149.561,0,0,0,17.5-.926,45.591,45.591,0,0,0,7.338-1.284c2.961-.856,1.7-5.489-1.277-4.628-4.43,1.281-8.721,1.464-13.453,1.743a151,151,0,0,1-17.323.108c-1.363-.077-2.725-.181-4.082-.334-.284-.032-.568-.065-.852-.1.4.054-.368-.058-.5-.079-.542-.088-1.08-.189-1.615-.307-3.01-.666-4.3,3.961-1.276,4.628Z"></path><path class="c" d="M116.1,206.993a244.181,244.181,0,0,0-41.191,1.627,2.478,2.478,0,0,0-2.4,2.4,2.414,2.414,0,0,0,2.4,2.4,244.181,244.181,0,0,1,41.191-1.627c3.089.127,3.083-4.673,0-4.8Z"></path><path class="c" d="M101.013,120.339a19.4,19.4,0,0,0,9.349,2.163,15.2,15.2,0,0,0,9.427-2.778,2.412,2.412,0,0,0,0-3.394,2.462,2.462,0,0,0-3.394,0c.726-.565.155-.128-.031-.008s-.382.232-.579.335c-.164.086-.874.368-.221.126-.266.1-.528.2-.8.291a14.03,14.03,0,0,1-2.236.51c.351-.052-.085.006-.221.02-.22.021-.439.04-.659.054-.529.034-1.059.047-1.589.044-.475,0-.949-.019-1.423-.051-.217-.015-.434-.032-.651-.054-.019,0-.8-.11-.324-.035a16.013,16.013,0,0,1-2.088-.464c-.293-.087-.578-.192-.866-.291-.616-.211.344.179-.212-.083q-.537-.253-1.061-.53a2.453,2.453,0,0,0-3.284.861,2.427,2.427,0,0,0,.861,3.284Z"></path><path class="c" d="M109.157,98.3a44,44,0,0,1,1.034,4.732l-.085-.638a2.91,2.91,0,0,1,.017.653l.086-.638a1.558,1.558,0,0,1-.072.294l.242-.574a1.12,1.12,0,0,1-.1.189l.376-.486a.975.975,0,0,1-.155.153l.486-.375a3.27,3.27,0,0,1-.375.2l.573-.242a2.733,2.733,0,0,1-.631.184l.638-.085a2.557,2.557,0,0,1-.593,0l.638.085c-.224-.031-.443-.085-.667-.115a1.812,1.812,0,0,0-.957-.043,1.774,1.774,0,0,0-.892.285,2.4,2.4,0,0,0-.861,3.283,2.3,2.3,0,0,0,1.434,1.1c.507.068,1,.2,1.513.22a4.847,4.847,0,0,0,2.228-.529,3.208,3.208,0,0,0,1.78-2.116,5.328,5.328,0,0,0-.022-2.283c-.258-1.524-.61-3.035-1-4.53a2.4,2.4,0,1,0-4.628,1.276Z"></path><path class="c" d="M84.11,84.9c-.79,2.568-.275,8.476,4.59,8.979,6.431-.039,6.773-7.181,4.608-10.539C91.536,80.591,86.324,79.448,84.11,84.9Z"></path><path class="c" d="M135.6,84.9c.79,2.568.275,8.475-4.59,8.978-6.43-.039-6.773-7.181-4.608-10.539C128.178,80.591,133.389,79.448,135.6,84.9Z"></path></svg>