<?xml version="1.0" encoding="UTF-8"?> <!-- Generator: Adobe Illustrator 23.1.1, SVG Export Plug-In . SVG Version: 6.00 Build 0) --> <svg xmlns="http://www.w3.org/2000/svg" xmlns:xlink="http://www.w3.org/1999/xlink" id="icon" x="0px" y="0px" viewBox="0 0 1000 1000" style="enable-background:new 0 0 1000 1000;" xml:space="preserve"> <path d="M410,280.8c0-45.9,14.4-122.8,27.4-189.1c4.1-21.1-6-31.7-25.3-31.7H227.9c-19.3,0-29.4,10.7-25.3,31.7 c13,66.3,27.4,143.1,27.4,189.1c0,50.2-23.6,95.8-51,148.6c-37,71.5-79,152.5-79,271.8c0,97.8,30.5,160.9,88.1,260.3h263.9 c57.5-99.5,88.1-162.6,88.1-260.3c0-119.3-42-200.3-79-271.8C433.6,376.6,410,331,410,280.8z M429.5,923.6H210.5 C166.8,849.2,140,785.9,140,701.3c0-109.6,39.6-186,74.5-253.4c28.5-55.1,54.5-107.1,54.5-167c0-49.8-15.1-127.3-26.7-182.8h155.4 C386.1,153.5,371,231,371,280.8c0,60,25.9,112,54.5,167c34.9,67.4,74.5,143.9,74.5,253.4C500,785.9,473.2,849.2,429.5,923.6z M580,720v20c0,73.9,21,122.4,70,160.1V960h180v-59.9c49-37.7,70-86.2,70-160.1v-20H580z M790,879.6V922H690v-42.4 c-42.7-17.8-69.4-67.7-69.4-121.6h238.7C859.4,811.9,832.7,861.8,790,879.6z"></path> </svg> 